<?xml version="1.0" encoding="UTF-8"?>
<svg id="Layer_1" data-name="Layer 1" xmlns="http://www.w3.org/2000/svg" viewBox="0 0 180 180">
  <defs>
    <style>
      .cls-1 {
        fill: #010101;
      }
    </style>
  </defs>
  <path class="cls-1" d="M90,.21c49.59,0,89.79,40.19,89.79,89.79s-40.2,89.79-89.79,89.79S.21,139.59.21,90,40.41.21,90,.21ZM130.04,43.07c0-8.64-7.01-15.66-15.67-15.66s-15.67,7.01-15.67,15.66,7.01,15.67,15.67,15.67,15.67-7.01,15.67-15.67ZM118.86,91.3c2.87-8.93,2.46-15.88-1.64-21.09-5.44-7-14.67-6.84-16.66-6.84h-52.01c-2.57,0-4.66,2.09-4.66,4.67s2.09,4.66,4.66,4.66h51.91c1.73,0,6.94.15,9.29,3.49,2.53,3.57,1.5,8.28.22,12.27,0,0-14.41,46.03-15.51,49.55-2.33,7.51-8.96,13.21-16.78,9.91-6.31-2.66-6.23-9.61-3.38-15.16l14.74-29.16c2.96-5.83-.12-9.33-6.43-9.33h-27.46c-2.57,0-4.66,2.1-4.66,4.67s2.09,4.66,4.66,4.66h6.72c1.73-.01,6.58-.22,9.2,3.49,2.33,3.52,1.85,6.42.28,11.5l-5.84,18.76c-.99,3.12-2.94,13.81,8.41,18.96,11.24,5.11,24.66-.43,28.54-12.63,2.69-8.59,16.39-52.38,16.39-52.38ZM98.66,83.51c0-2.58-2.09-4.67-4.66-4.67h-58.13c-2.56,0-4.66,2.09-4.66,4.67s2.1,4.66,4.66,4.66h58.13c2.57,0,4.66-2.08,4.66-4.66Z"/>
</svg>