<svg width="20" height="20" viewBox="0 0 20 20" fill="none" xmlns="http://www.w3.org/2000/svg">
<g id="icon_search">
<g id="icon">
<path id="Union" fill-rule="evenodd" clip-rule="evenodd" d="M13.3346 8.33073C13.3346 11.0922 11.0961 13.3307 8.33464 13.3307C5.57321 13.3307 3.33464 11.0922 3.33464 8.33073C3.33464 5.56931 5.57321 3.33073 8.33464 3.33073C11.0961 3.33073 13.3346 5.56931 13.3346 8.33073ZM12.4245 13.5959C11.2953 14.4743 9.87606 14.9974 8.33464 14.9974C4.65274 14.9974 1.66797 12.0126 1.66797 8.33073C1.66797 4.64883 4.65274 1.66406 8.33464 1.66406C12.0165 1.66406 15.0013 4.64883 15.0013 8.33073C15.0013 9.87049 14.4793 11.2883 13.6026 12.4169L18.5105 17.3249L17.332 18.5034L12.4245 13.5959Z" fill="white"/>
</g>
</g>
</svg>
