<svg width="225" height="40" viewBox="0 0 225 40" fill="none" xmlns="http://www.w3.org/2000/svg">
<path d="M155.584 6.0752H139.106L122.295 33.9233H125.906C128.588 33.9233 131.119 32.464 132.584 30.0519L136.966 22.7831H143.267C150.435 22.7831 154.479 19.7669 157.391 15.1472C157.933 14.2921 158.435 13.488 158.904 12.7351C160.672 9.88618 158.769 6.0752 155.584 6.0752ZM151.592 13.0605C151.22 13.5996 150.717 14.2549 150.132 14.9195C148.476 16.7971 146.192 17.2154 144.073 17.2154H140.329L143.692 11.6476H150.938C151.618 11.6476 152 12.4749 151.592 13.0605Z" fill="white"/>
<path d="M197.751 6.0752C194.387 6.0752 191.249 7.89703 189.419 10.9226L175.489 33.9233H193.991C197.356 33.9233 200.489 32.1015 202.323 29.0852L216.254 6.0752H197.751ZM196.782 25.079C195.547 27.1193 193.426 28.3602 191.149 28.3602H186.829L194.965 14.9241C196.199 12.8839 198.32 11.6523 200.598 11.6523H204.918L196.782 25.079Z" fill="white"/>
<path d="M181.868 6.0752H165.185L148.146 33.9233H156.202C156.202 33.9233 157.089 32.464 158.569 30.0519L163.007 22.7831H167.525C169.048 22.7831 169.97 24.5771 169.145 25.9249L164.25 33.9233H172.297L176.248 27.4818C176.266 27.4539 176.274 27.4353 176.292 27.4074C177.464 25.4926 176.885 23.1456 175.37 21.9326C179.124 20.7289 181.688 18.3168 183.716 15.1472C184.26 14.2921 184.765 13.488 185.239 12.7351C187.039 9.88618 185.103 6.0752 181.876 6.0752H181.868ZM177.521 12.8606C177.1 13.4416 176.533 14.1712 175.871 14.9195C174.193 16.7971 172.35 17.2154 170.216 17.2154H166.414L169.821 11.6476H176.955C177.548 11.6476 177.886 12.368 177.521 12.8606Z" fill="white"/>
<path d="M195.938 39.4932H117.345C116.221 39.4932 115.236 38.8651 114.705 37.809C114.173 36.7529 114.226 35.5247 114.84 34.5244L133.05 5.01871C134.792 2.19469 137.728 0.505859 140.895 0.505859H221.201C222.325 0.505859 223.31 1.13394 223.841 2.19004C224.373 3.24614 224.32 4.47438 223.706 5.47465L206.437 33.4544C204.102 37.2368 200.177 39.4932 195.934 39.4932H195.938ZM140.895 1.86902C138.155 1.86902 135.624 3.32523 134.117 5.76775L115.907 35.2735C115.554 35.8504 115.524 36.5529 115.829 37.1577C116.134 37.7625 116.7 38.1254 117.345 38.1254H195.938C199.75 38.1254 203.279 36.0969 205.374 32.696L222.643 4.71631C222.996 4.1394 223.027 3.43689 222.722 2.83207C222.417 2.22726 221.85 1.86437 221.206 1.86437H140.9L140.895 1.86902Z" fill="white"/>
<path d="M129.753 0C122.952 11.4556 116.151 22.9158 109.35 34.3714C107.223 37.7854 103.504 40 99.7727 40H73.5767L78.5944 31.6326H96.1456C96.8867 31.6232 97.6234 31.5949 98.3428 31.439C99.0795 31.2832 99.7378 31.014 100.379 30.6174C101.011 30.2302 101.556 29.7391 102.044 29.1536C102.541 28.5775 102.942 27.94 103.334 27.2931C104.019 26.2023 104.694 25.1163 105.375 24.0349H83.15L88.2506 15.5306H105.845C107.454 15.5306 108.766 15.4362 110.196 14.5768C110.854 14.1801 111.417 13.6891 111.922 13.0941C112.428 12.5133 112.847 11.8522 113.248 11.1864C113.762 10.327 114.272 9.47232 114.787 8.61291H92.4008L97.5493 0H129.753Z" fill="white"/>
<path d="M95.9466 0.0283889L90.6708 8.71067C87.9655 8.71067 85.2212 8.72486 82.9155 8.74852C77.4877 17.7052 72.0685 26.6619 66.6494 35.6234C65.0037 38.3156 62.2376 39.929 59.2675 39.929H51.8944C58.2601 29.5292 64.6302 18.9685 70.996 8.56872H63.2407L18.3157 31.436H33.4658C35.8845 31.436 38.7199 30.1396 40.0747 27.9631L41.3991 25.7393L56.4407 18.1405L47.018 33.4847C44.5038 37.5491 40.2962 40 35.7976 40L0 39.9858L5.11084 31.436L49.8796 8.55926C49.8796 8.55926 53.2274 2.9146 54.9947 0.0141945C65.9286 9.26961e-10 77.2532 0 88.1783 0C90.7489 0 93.4759 0.0141945 95.9466 0.0236574V0.0283889Z" fill="white"/>
<path d="M25.3541 13.7085L15.1493 13.6699L8.94873 24.3028L23.7251 16.5452L25.3541 13.7085Z" fill="white"/>
<path d="M28.3288 10.2574L23.9656 2.5293C21.6731 3.97069 19.6764 5.98019 18.1712 8.44512L15.9092 12.1495H26.4104C26.9716 11.4218 27.6241 10.788 28.3375 10.2574H28.3288Z" fill="white"/>
<path d="M34.4881 8.58883H35.0836L40.268 0H34.5494H32.9292C30.267 0 27.6879 0.651173 25.354 1.85846L29.7371 9.62025C31.0157 8.95007 33.0212 8.59358 34.4837 8.59358L34.4881 8.58883Z" fill="white"/>
<path d="M47.9642 8.6076H47.9686L53.1935 0H41.9429L36.7881 8.6076H47.9642Z" fill="white"/>
</svg>
