<svg width="326" height="79" viewBox="0 0 326 79" fill="none" xmlns="http://www.w3.org/2000/svg">
<path d="M26.0386 2.10531V6.01523L29.5386 5.21321C30.1386 5.11296 30.5386 4.51145 30.5386 3.90992V0L27.0386 0.802018C26.4386 0.902272 26.0386 1.50378 26.0386 2.10531Z" fill="white"/>
<path d="M63.8384 18.1444C63.8384 18.1444 63.8384 15.3373 63.8384 12.7307C63.8384 8.82083 60.7384 6.91602 56.8384 6.91602C52.9384 6.91602 49.8384 8.82083 49.8384 12.7307V23.8589C49.8384 27.7688 52.9384 29.6736 56.8384 29.6736C60.7384 29.6736 63.8384 27.7688 63.8384 23.8589V20.8513L59.2384 21.9541V23.8589C59.2384 25.1622 58.1384 25.7637 56.8384 25.7637C55.5384 25.7637 54.4384 25.1622 54.4384 23.8589V20.2498L63.8384 18.1444ZM54.5384 12.7307C54.5384 11.4274 55.6384 10.8259 56.9384 10.8259C58.2384 10.8259 59.3384 11.4274 59.3384 12.7307C59.3384 13.3322 59.3384 15.2371 59.3384 15.2371L54.5384 16.3398C54.5384 16.3398 54.5384 13.633 54.5384 12.7307Z" fill="white"/>
<path d="M16.9384 7.01646C13.5384 7.21697 12.8384 8.52025 9.33838 8.31974V29.4733H13.9384V12.7309C13.9384 11.4276 15.0384 10.8261 16.3384 10.8261C17.6384 10.8261 18.7384 11.4276 18.7384 12.7309V29.4733H23.3384V12.9315C23.2384 9.02156 20.8384 6.7157 16.9384 7.01646Z" fill="white"/>
<path d="M26.0381 9.92617V29.4757H30.6381V7.8208L27.1381 8.62282C26.4381 8.72307 26.0381 9.32464 26.0381 9.92617Z" fill="white"/>
<path d="M40.3384 7.01758C36.4384 7.01758 33.3384 8.92239 33.3384 12.8323V29.4745H37.9384V12.7321C37.9384 11.4288 39.0384 10.8272 40.3384 10.8272C41.6384 10.8272 42.7384 11.4288 42.7384 12.7321V29.4745H47.3384V12.8323C47.3384 8.92239 44.1384 7.01758 40.3384 7.01758Z" fill="white"/>
<path d="M74.1382 7.01777C73.0382 7.11802 72.0382 7.41877 71.1382 7.81979V0L67.6382 0.802018C67.0382 0.902272 66.6382 1.50378 66.6382 2.10531V28.3718C70.1382 28.1713 70.8382 29.4746 74.2382 29.6751C78.1382 29.9759 80.5382 27.5698 80.5382 23.7602C80.5382 20.9531 80.5382 15.4391 80.5382 12.632C80.5382 8.92257 78.0382 6.71701 74.1382 7.01777ZM75.9382 23.9607C75.9382 25.264 74.8382 25.8655 73.5382 25.8655C72.2382 25.8655 71.1382 25.264 71.1382 23.9607V12.8325C71.1382 11.5292 72.2382 10.9277 73.5382 10.9277C74.8382 10.9277 75.9382 11.5292 75.9382 12.8325V23.9607Z" fill="white"/>
<path d="M104.338 5.51315V2.70605L100.838 3.50807C100.238 3.60833 99.8384 4.20984 99.8384 4.81136V23.5588C99.8384 27.4687 102.938 29.3735 106.838 29.3735H109.138V25.5639H106.838C105.538 25.5639 104.438 24.9624 104.438 23.6591V12.1299L109.138 11.0271V7.11719L104.438 8.22001V5.51315H104.338Z" fill="white"/>
<path d="M90.1382 7.01758C86.2382 7.01758 83.1382 8.92239 83.1382 12.8323V23.9605C83.1382 27.8704 86.2382 29.7752 90.1382 29.7752C94.0382 29.7752 97.1382 27.8704 97.1382 23.9605V12.8323C97.1382 8.92239 94.0382 7.01758 90.1382 7.01758ZM92.5382 23.9605C92.5382 25.2638 91.4382 25.8653 90.1382 25.8653C88.8382 25.8653 87.7382 25.2638 87.7382 23.9605V12.8323C87.7382 11.529 88.8382 10.9275 90.1382 10.9275C91.4382 10.9275 92.5382 11.529 92.5382 12.8323V23.9605Z" fill="white"/>
<path d="M317.738 42.6079H275.138C274.638 42.6079 274.238 43.0089 274.138 43.5102L273.338 48.4226C273.238 48.9239 273.638 49.3249 274.138 49.3249H314.538C315.838 49.3249 316.738 50.4277 316.538 51.731L316.138 54.0369C315.838 56.0419 314.138 57.4455 312.138 57.4455H275.338C274.838 57.4455 274.438 57.8465 274.338 58.3478L273.638 62.6587C273.538 63.1599 273.938 63.561 274.438 63.561H312.238C313.538 63.561 314.438 64.6637 314.238 65.967L313.738 68.7741C313.438 70.7792 311.738 72.1828 309.738 72.1828H270.238C269.738 72.1828 269.338 72.5838 269.238 73.0851L268.438 77.9975C268.338 78.4988 268.738 78.8998 269.238 78.8998H312.638C317.638 78.8998 321.938 75.2906 322.738 70.2779L323.338 66.8693C323.738 64.6638 323.138 62.5584 322.038 60.9543C323.738 59.4505 324.938 57.3452 325.338 54.9391L325.838 52.0318C326.538 47.1194 322.738 42.6079 317.738 42.6079Z" fill="white"/>
<path d="M262.438 42.6079H219.238C214.238 42.6079 209.938 46.217 209.138 51.2297L206.238 69.4759C205.438 74.4886 209.238 79 214.338 79H250.338C255.338 79 259.638 75.3909 260.438 70.3782L262.138 59.8516C262.338 58.6485 261.338 57.4455 260.138 57.4455H233.338C232.838 57.4455 232.438 57.8465 232.338 58.3478L231.638 62.6587C231.538 63.1599 231.938 63.561 232.438 63.561H252.338L251.538 68.7741C251.238 70.7792 249.538 72.1828 247.538 72.1828H218.838C216.938 72.1828 215.538 70.4785 215.838 68.6739L218.438 52.7335C218.738 50.7284 220.438 49.3249 222.438 49.3249H261.638C262.138 49.3249 262.538 48.9239 262.638 48.4226L263.438 43.5102C263.338 43.1092 262.938 42.6079 262.438 42.6079Z" fill="white"/>
<path d="M191.838 42.6061H174.038C173.238 42.6061 172.338 42.9068 171.638 43.4081L156.138 54.436L144.238 43.5084C143.638 43.0071 142.938 42.7063 142.138 42.7063H124.738C123.838 42.7063 123.338 43.8092 124.038 44.5109L141.738 60.5515L127.338 70.5769L109.838 44.0097C109.238 43.1074 108.338 42.6061 107.338 42.6061H98.0383C96.9383 42.6061 95.8383 43.1073 95.0383 43.9094L70.0383 70.4766L71.7383 45.8142C71.8383 44.0097 70.4383 42.5059 68.6383 42.5059H54.2383C53.1383 42.5059 52.0383 43.1074 51.4383 44.0097L36.9383 64.8624L30.2383 44.6112C29.8383 43.3079 28.6383 42.5059 27.3383 42.5059H12.1383C10.5383 42.5059 9.23832 43.5084 8.83832 45.0122L0.0383206 76.9931C-0.161679 77.8954 0.438315 78.7977 1.43831 78.7977H14.5383C15.4383 78.7977 16.2383 78.1962 16.5383 77.2939L21.8383 56.9424L28.1383 77.3942C28.4383 78.2965 29.2383 78.7977 30.0383 78.7977H39.5383C40.5383 78.7977 41.4383 78.2964 42.0383 77.4944L56.7383 56.8421L55.4383 76.5922C55.3383 77.7952 56.3383 78.7977 57.4383 78.7977H80.0383C80.9383 78.7977 81.7383 78.3967 82.2383 77.7952L100.638 57.8447C101.138 57.3434 101.838 57.4436 102.238 57.9449L109.538 69.0731C109.938 69.5744 109.538 70.3764 108.838 70.3764H98.0383C97.4383 70.3764 96.9383 70.5769 96.5383 71.0782L90.3383 77.7952C89.9383 78.1962 90.2383 78.7977 90.7383 78.7977H137.238C138.038 78.7977 138.938 78.4969 139.638 77.9957L155.038 66.9678L166.838 77.8954C167.438 78.3967 168.138 78.6975 168.938 78.6975H186.438C187.338 78.6975 187.838 77.4944 187.138 76.8929L169.338 60.8523L192.538 44.5109C193.538 44.2102 193.038 42.6061 191.838 42.6061Z" fill="white"/>
</svg>
