<svg width="652" height="134" viewBox="0 0 652 134" fill="none" xmlns="http://www.w3.org/2000/svg">
<path d="M37.3306 2.37773V6.79359L41.2935 5.88779C41.9729 5.77456 42.4258 5.09522 42.4258 4.41586V0L38.4628 0.905798C37.7835 1.01902 37.3306 1.69837 37.3306 2.37773Z" fill="white"/>
<path d="M80.1305 20.4923C80.1305 20.4923 80.1305 17.322 80.1305 14.3782C80.1305 9.96232 76.6205 7.81104 72.2047 7.81104C67.7888 7.81104 64.2788 9.96232 64.2788 14.3782V26.9463C64.2788 31.3621 67.7888 33.5134 72.2047 33.5134C76.6205 33.5134 80.1305 31.3621 80.1305 26.9463V23.5495L74.9221 24.795V26.9463C74.9221 28.4182 73.6766 29.0976 72.2047 29.0976C70.7327 29.0976 69.4872 28.4182 69.4872 26.9463V22.8701L80.1305 20.4923ZM69.6004 14.3782C69.6004 12.9062 70.8459 12.2268 72.3179 12.2268C73.7898 12.2268 75.0353 12.9062 75.0353 14.3782C75.0353 15.0575 75.0353 17.2088 75.0353 17.2088L69.6004 18.4543C69.6004 18.4543 69.6004 15.3972 69.6004 14.3782Z" fill="white"/>
<path d="M27.0271 7.92464C23.1774 8.15109 22.3848 9.62302 18.4219 9.39657V33.2874H23.6303V14.3786C23.6303 12.9066 24.8758 12.2272 26.3477 12.2272C27.8197 12.2272 29.0652 12.9066 29.0652 14.3786V33.2874H34.2736V14.605C34.1604 10.1892 31.4429 7.58496 27.0271 7.92464Z" fill="white"/>
<path d="M37.3306 11.2103V33.2895H42.539V8.83252L38.5761 9.73832C37.7835 9.85154 37.3306 10.531 37.3306 11.2103Z" fill="white"/>
<path d="M53.522 7.92578C49.1062 7.92578 45.5962 10.0771 45.5962 14.4929V33.2885H50.8046V14.3797C50.8046 12.9078 52.0501 12.2284 53.522 12.2284C54.994 12.2284 56.2395 12.9078 56.2395 14.3797V33.2885H61.4479V14.4929C61.4479 10.0771 57.8246 7.92578 53.522 7.92578Z" fill="white"/>
<path d="M91.7928 7.92585C90.5473 8.03908 89.415 8.37874 88.396 8.83165V0L84.433 0.905798C83.7537 1.01902 83.3008 1.69837 83.3008 2.37773V32.0431C87.2637 31.8166 88.0563 33.2885 91.906 33.515C96.3218 33.8547 99.0393 31.1373 99.0393 26.8347C99.0393 23.6643 99.0393 17.4368 99.0393 14.2665C99.0393 10.0771 96.2086 7.58617 91.7928 7.92585ZM93.8308 27.0611C93.8308 28.5331 92.5853 29.2124 91.1134 29.2124C89.6415 29.2124 88.396 28.5331 88.396 27.0611V14.493C88.396 13.021 89.6415 12.3417 91.1134 12.3417C92.5853 12.3417 93.8308 13.021 93.8308 14.493V27.0611Z" fill="white"/>
<path d="M125.987 6.22648V3.05615L122.024 3.96195C121.345 4.07518 120.892 4.75452 120.892 5.43388V26.6072C120.892 31.0231 124.402 33.1744 128.817 33.1744H131.422V28.8718H128.817C127.346 28.8718 126.1 28.1924 126.1 26.7204V13.6994L131.422 12.4539V8.03807L126.1 9.28361V6.22648H125.987Z" fill="white"/>
<path d="M109.909 7.92578C105.493 7.92578 101.983 10.0771 101.983 14.4929V27.0611C101.983 31.4769 105.493 33.6282 109.909 33.6282C114.325 33.6282 117.835 31.4769 117.835 27.0611V14.4929C117.835 10.0771 114.325 7.92578 109.909 7.92578ZM112.626 27.0611C112.626 28.533 111.381 29.2123 109.909 29.2123C108.437 29.2123 107.191 28.533 107.191 27.0611V14.4929C107.191 13.021 108.437 12.3416 109.909 12.3416C111.381 12.3416 112.626 13.021 112.626 14.4929V27.0611Z" fill="white"/>
<path d="M635.477 54H550.277C549.277 54 548.477 54.8 548.277 55.8L546.677 65.6C546.477 66.6 547.277 67.4 548.277 67.4H629.077C631.677 67.4 633.477 69.6 633.077 72.2L632.277 76.8C631.677 80.8 628.277 83.6 624.277 83.6H550.677C549.677 83.6 548.877 84.4 548.677 85.4L547.277 94C547.077 95 547.877 95.8 548.877 95.8H624.477C627.077 95.8 628.877 98 628.477 100.6L627.477 106.2C626.877 110.2 623.477 113 619.477 113H540.477C539.477 113 538.677 113.8 538.477 114.8L536.877 124.6C536.677 125.6 537.477 126.4 538.477 126.4H625.277C635.277 126.4 643.877 119.2 645.477 109.2L646.677 102.4C647.477 98 646.277 93.8 644.077 90.6C647.477 87.6 649.877 83.4 650.677 78.6L651.677 72.8C653.077 63 645.477 54 635.477 54Z" fill="white"/>
<path d="M524.877 54H438.477C428.477 54 419.877 61.2 418.277 71.2L412.477 107.6C410.877 117.6 418.477 126.6 428.677 126.6H500.677C510.677 126.6 519.277 119.4 520.877 109.4L524.277 88.4C524.677 86 522.677 83.6 520.277 83.6H466.677C465.677 83.6 464.877 84.4 464.677 85.4L463.277 94C463.077 95 463.877 95.8 464.877 95.8H504.677L503.077 106.2C502.477 110.2 499.077 113 495.077 113H437.677C433.877 113 431.077 109.6 431.677 106L436.877 74.2C437.477 70.2 440.877 67.4 444.877 67.4H523.277C524.277 67.4 525.077 66.6 525.277 65.6L526.877 55.8C526.677 55 525.877 54 524.877 54Z" fill="white"/>
<path d="M383.677 53.9983H348.077C346.477 53.9983 344.677 54.5983 343.277 55.5983L312.277 77.5983L288.477 55.7983C287.277 54.7983 285.877 54.1982 284.277 54.1982H249.477C247.677 54.1982 246.677 56.3983 248.077 57.7983L283.477 89.7983L254.677 109.798L219.677 56.7983C218.477 54.9983 216.677 53.9983 214.677 53.9983H196.077C193.877 53.9983 191.677 54.9983 190.077 56.5983L140.077 109.598L143.477 60.3983C143.677 56.7983 140.877 53.7983 137.277 53.7983H108.477C106.277 53.7983 104.077 54.9983 102.877 56.7983L73.8766 98.3983L60.4766 57.9983C59.6766 55.3983 57.2766 53.7983 54.6766 53.7983H24.2767C21.0767 53.7983 18.4766 55.7983 17.6766 58.7983L0.0766412 122.598C-0.323359 124.398 0.876629 126.198 2.87663 126.198H29.0766C30.8766 126.198 32.4766 124.998 33.0766 123.198L43.6766 82.5983L56.2767 123.398C56.8767 125.198 58.4766 126.198 60.0766 126.198H79.0766C81.0766 126.198 82.8766 125.198 84.0766 123.598L113.477 82.3983L110.877 121.798C110.677 124.198 112.677 126.198 114.877 126.198H160.077C161.877 126.198 163.477 125.398 164.477 124.198L201.277 84.3983C202.277 83.3983 203.677 83.5983 204.477 84.5983L219.077 106.798C219.877 107.798 219.077 109.398 217.677 109.398H196.077C194.877 109.398 193.877 109.798 193.077 110.798L180.677 124.198C179.877 124.998 180.477 126.198 181.477 126.198H274.477C276.077 126.198 277.877 125.598 279.277 124.598L310.077 102.598L333.677 124.398C334.877 125.398 336.277 125.998 337.877 125.998H372.877C374.677 125.998 375.677 123.598 374.277 122.398L338.677 90.3983L385.077 57.7983C387.077 57.1983 386.077 53.9983 383.677 53.9983Z" fill="white"/>
</svg>
