<svg width="659" height="80" viewBox="0 0 659 80" fill="none" xmlns="http://www.w3.org/2000/svg">
<g clip-path="url(#clip0_4_3469)">
<path d="M375.913 35.5001H296.406L299.122 25.2139H378.614L383.133 8H276.561L260.157 69.8784L218.686 8H198.812L125.878 69.0137L92.9958 40.1241L146.43 8H106.459L76.755 25.855L56.4332 8H18.4547L54.2068 39.4127L0 72H39.9668L70.4476 53.6775L91.3042 72H154.166L199.058 34.4454H206.205L220.123 55.2078H188.39L168.318 72H286.82L292.066 52.0231H371.576L375.913 35.5001Z" fill="#FAF8F8"/>
<path d="M632.613 8L615.807 72H641.477L658.286 8H632.613Z" fill="#FAF8F8"/>
<path d="M596.172 8H509.182L504.66 25.0609H588.543C590.795 25.0609 592.443 27.1702 591.87 29.325C590.906 32.9647 587.586 35.5001 583.785 35.5001H501.888L492.903 69.386L451.762 8H431.889L355.388 72H387.243L432.141 34.4371H439.283L453.199 55.2039H421.47L401.394 71.9957H519.437L524.622 52.2588H554.622L578.459 71.9957H613.38L589.411 52.1557C601.242 51.1424 611.298 42.8704 614.355 31.3269C617.475 19.5352 608.487 8 596.172 8Z" fill="#FAF8F8"/>
</g>
<defs>
<clipPath id="clip0_4_3469">
<rect width="658.286" height="64" fill="white" transform="translate(0 8)"/>
</clipPath>
</defs>
</svg>
