<svg width="370" height="36" viewBox="0 0 370 36" fill="none" xmlns="http://www.w3.org/2000/svg">
<path d="M211.288 15.4688H166.6L168.126 9.68282H212.806L215.346 0H155.445L146.226 34.8066L122.916 0H111.745L70.752 34.3202L52.2698 18.0698L82.3034 0H59.837L43.1414 10.0434L31.7192 0H10.3727L30.4678 17.6696L0 36H22.464L39.5962 25.6936L51.319 36H86.6516L111.884 14.8755H115.901L123.724 26.5544H105.887L94.606 36H161.212L164.161 24.763H208.85L211.288 15.4688Z" fill="white"/>
<path d="M355.57 0L346.124 36H360.552L370 0H355.57Z" fill="white"/>
<path d="M335.088 0H286.194L283.652 9.59674H330.8C332.066 9.59674 332.992 10.7832 332.67 11.9953C332.128 14.0427 330.262 15.4688 328.126 15.4688H282.094L277.044 34.5296L253.92 0H242.75L199.751 36H217.656L242.892 14.8709H246.906L254.728 26.5522H236.894L225.61 35.9976H291.958L294.872 24.8956H311.734L325.132 35.9976H344.76L331.288 24.8376C337.938 24.2676 343.59 19.6146 345.308 13.1214C347.062 6.48856 342.01 0 335.088 0Z" fill="white"/>
</svg>
