<svg width="421" height="92" viewBox="0 0 421 92" fill="none" xmlns="http://www.w3.org/2000/svg">
<path d="M291.719 19.3926H260.824L229.303 71.6078H236.072C241.102 71.6078 245.848 68.8715 248.594 64.3489L256.81 50.72H268.625C282.065 50.72 289.647 45.0645 295.107 36.4026C296.123 34.7992 297.066 33.2916 297.943 31.88C301.259 26.5382 297.691 19.3926 291.719 19.3926ZM284.235 32.4899C283.536 33.5008 282.593 34.7295 281.496 35.9756C278.392 39.4961 274.11 40.2804 270.136 40.2804H263.115L269.421 29.8408H283.008C284.284 29.8408 284.999 31.392 284.235 32.4899Z" fill="white"/>
<path d="M370.782 19.3926C364.474 19.3926 358.59 22.8085 355.159 28.4814L329.04 71.6078H363.732C370.04 71.6078 375.916 68.1918 379.355 62.5363L405.474 19.3926H370.782ZM368.964 55.0247C366.65 58.8503 362.673 61.1769 358.403 61.1769H350.302L365.558 35.9843C367.872 32.1588 371.849 29.8496 376.12 29.8496H384.22L368.964 55.0247Z" fill="white"/>
<path d="M341.001 19.3926H309.721L277.774 71.6078H292.879C292.879 71.6078 294.542 68.8715 297.316 64.3489L305.638 50.72H314.109C316.965 50.72 318.694 54.0836 317.146 56.6107L307.968 71.6078H323.056L330.465 59.53C330.498 59.4777 330.514 59.4428 330.547 59.3905C332.745 55.8003 331.658 51.3997 328.819 49.1253C335.857 46.8683 340.664 42.3457 344.467 36.4026C345.488 34.7992 346.434 33.2916 347.323 31.88C350.698 26.5382 347.068 19.3926 341.018 19.3926H341.001ZM332.852 32.1152C332.062 33.2045 331 34.5726 329.757 35.9756C326.612 39.4961 323.155 40.2804 319.155 40.2804H312.026L318.414 29.8408H331.79C332.901 29.8408 333.535 31.1915 332.852 32.1152Z" fill="white"/>
<path d="M367.383 82.0495H220.02C217.912 82.0495 216.066 80.8719 215.07 78.8917C214.073 76.9115 214.171 74.6085 215.323 72.733L249.466 17.4098C252.733 12.1148 258.239 8.94824 264.177 8.94824H414.75C416.858 8.94824 418.704 10.1259 419.7 12.1061C420.697 14.0863 420.599 16.3892 419.447 18.2647L387.068 70.7267C382.69 77.8187 375.33 82.0495 367.375 82.0495H367.383ZM264.177 11.5042C259.039 11.5042 254.293 14.2346 251.467 18.8143L217.324 74.1375C216.662 75.2192 216.605 76.5364 217.177 77.6704C217.749 78.8044 218.811 79.4849 220.02 79.4849H367.383C374.53 79.4849 381.146 75.6815 385.075 69.3048L417.454 16.8428C418.116 15.7611 418.173 14.4439 417.601 13.3099C417.029 12.1759 415.967 11.4954 414.758 11.4954H264.185L264.177 11.5042Z" fill="white"/>
<path d="M243.285 8C230.533 29.4792 217.782 50.9672 205.03 72.4463C201.041 78.8476 194.069 83 187.072 83H137.955L147.363 67.3112H180.271C181.661 67.2935 183.042 67.2404 184.391 66.9482C185.772 66.656 187.007 66.1513 188.208 65.4076C189.393 64.6816 190.415 63.7608 191.331 62.663C192.263 61.5828 193.015 60.3876 193.75 59.1746C195.034 57.1294 196.301 55.093 197.576 53.0655H155.905L165.468 37.1199H198.458C201.475 37.1199 203.935 36.9429 206.616 35.3315C207.85 34.5878 208.905 33.667 209.853 32.5514C210.801 31.4624 211.586 30.2229 212.338 28.9745C213.302 27.3631 214.259 25.7606 215.223 24.1492H173.25L182.903 8H243.285Z" fill="white"/>
<path d="M179.9 8.05323L170.008 24.3325C164.935 24.3325 159.79 24.3591 155.467 24.4035C145.289 41.1973 135.128 57.9911 124.968 74.7938C121.882 79.8417 116.696 82.8669 111.127 82.8669H97.3019C109.238 63.3673 121.182 43.566 133.117 24.0664H118.576L34.3419 66.9425H62.7484C67.2833 66.9425 72.5999 64.5117 75.1401 60.4308L77.6234 56.2612L105.826 42.0135L88.1588 70.7839C83.4447 78.4045 75.5554 83 67.1205 83L0 82.9734L9.58283 66.9425L93.5242 24.0486C93.5242 24.0486 99.8015 13.4649 103.115 8.02661C123.616 8 144.85 8 165.334 8C170.154 8 175.267 8.02661 179.9 8.04436V8.05323Z" fill="white"/>
<path d="M47.5379 33.7062L28.4038 33.6338L16.7778 53.5705L44.4835 39.025L47.5379 33.7062Z" fill="white"/>
<path d="M53.1154 27.2344L44.9344 12.7441C40.636 15.4468 36.8921 19.2146 34.07 23.8363L29.8286 30.7821H49.5184C50.5706 29.4176 51.794 28.2292 53.1317 27.2344H53.1154Z" fill="white"/>
<path d="M64.6649 24.105H65.7815L75.5023 8.00098H64.7799H61.7421C56.7503 8.00098 51.9146 9.22193 47.5386 11.4856L55.7569 26.0389C58.1543 24.7824 61.9145 24.1139 64.6567 24.1139L64.6649 24.105Z" fill="white"/>
<path d="M89.9318 24.1402H89.94L99.7366 8.00098H78.6419L68.9766 24.1402H89.9318Z" fill="white"/>
</svg>
