<?xml version="1.0" encoding="UTF-8"?>
<svg xmlns="http://www.w3.org/2000/svg" id="Layer_1" data-name="Layer 1" viewBox="0 0 100 100">
  <defs>
    <style>.cls-1{fill:#231f20;}</style>
  </defs>
  <g id="_11-park" data-name=" 11-park">
    <path class="cls-1" d="M49.35,92.17A42.61,42.61,0,1,0,6.74,49.56,42.66,42.66,0,0,0,49.35,92.17Zm0-79a36.43,36.43,0,1,1,0,72.85h0a36.43,36.43,0,1,1,0-72.85Z"></path>
    <path class="cls-1" d="M66.81,44.17A12.09,12.09,0,0,0,54.74,32.09H42.16a3.1,3.1,0,0,0-3.09,3.1V70.61h6.19V56.24h9.48A12.08,12.08,0,0,0,66.81,44.17ZM45.26,38.28h9.48a5.89,5.89,0,0,1,0,11.78H45.26Z"></path>
  </g>
</svg>
