<?xml version="1.0" encoding="UTF-8"?>
<svg xmlns="http://www.w3.org/2000/svg" viewBox="0 0 18 20">
  <path fill="#000" fill-rule="evenodd" d="M2.28.076c1.575-.372 3.14.663 3.495 2.312h8.628C16.39 2.39 17.998 4.075 18 6.154v.196c0 2.082-1.61 3.77-3.598 3.772H3.516c-1.284.024-2.306 1.134-2.283 2.478.024 1.345 1.083 2.415 2.367 2.39h8.627a3.105 3.105 0 01.784-1.483 2.83 2.83 0 014.132.003v-.004c1.142 1.196 1.142 3.134 0 4.329L15.075 20l-2.067-2.165a3.1 3.1 0 01-.79-1.518H3.6c-1.986 0-3.597-1.686-3.597-3.766S1.613 8.784 3.6 8.784h10.802c1.283 0 2.323-1.09 2.325-2.434v-.196c-.002-1.345-1.042-2.434-2.325-2.435H5.78a3.106 3.106 0 01-.787 1.508L2.925 7.392.857 5.227a3.104 3.104 0 01-.785-1.492C-.283 2.086.706.448 2.281.075zm13.964 14.37a1.6 1.6 0 00-2.337.002 1.79 1.79 0 000 2.447l1.167 1.222 1.17-1.223a1.788 1.788 0 000-2.448zm-1.17.349c.223-.001.436.091.592.256a.894.894 0 01.244.615c.001.482-.371.874-.832.874-.46.002-.834-.388-.835-.87-.001-.483.37-.874.832-.875zM4.095 1.843a1.6 1.6 0 00-2.337.002l-.107.124a1.79 1.79 0 00.107 2.323l1.168 1.223 1.169-1.223a1.79 1.79 0 000-2.448zm-1.169.34a.816.816 0 01.576.25c.329.338.334.89.011 1.235a.807.807 0 01-1.18.011.894.894 0 01-.246-.626c.002-.482.378-.87.838-.867z"></path>
</svg>
