<?xml version="1.0" encoding="UTF-8"?>
<!-- Generator: Adobe Illustrator 22.1.0, SVG Export Plug-In . SVG Version: 6.00 Build 0)  -->
<svg xmlns="http://www.w3.org/2000/svg" xmlns:xlink="http://www.w3.org/1999/xlink" version="1.1" id="Layer_1" x="0px" y="0px" viewBox="0 0 100 100" style="enable-background:new 0 0 100 100;" xml:space="preserve">
<style type="text/css">
	.st0{fill:#010101;}
</style>
<g>
	<path d="M87.6,17.7c0-0.6-0.1-1.1-0.2-1.6c-0.6-2.2-2.4-3.5-4.8-3.5c-1.1,0-1.8,0-2.9,0c0-0.5,0-1.1,0-1.6   c-0.1-1.1-0.7-2.1-1.7-2.7c-0.2-0.1-0.4-0.2-0.7-0.3c-0.1,0-0.2-0.1-0.2-0.1L63.3,7.7l-0.7,0.2c-1.5,0.6-2.3,1.7-2.4,3.3   c0,0.5,0,0.9,0,1.4l-0.5,0c-0.7,0-0.8,0-1.8,0c-0.6,0-1.5,0.1-2.3,0.5c-1.8,0.9-2.7,2.5-2.7,4.6l0,69.2l0,0.2c0,0.2,0,0.3,0,0.5   c0.1,1.7,0.7,2.9,1.9,3.7c0.4,0.3,0.9,0.5,1.3,0.7l0.4,0.2l27,0.2l0.5-0.2c2.3-0.7,3.6-2.5,3.6-4.9C87.6,73.5,87.6,31.4,87.6,17.7z    M82.7,87.1c0,0.2,0,0.3,0,0.3c0,0-0.1,0-0.4,0h-3.7c-7.3,0-13.3,0-20.6,0c-0.1,0-0.2,0-0.3,0c0,0-0.1,0-0.1,0c0,0,0-0.1,0-0.3   V17.8c0-0.2,0-0.3,0-0.4c0,0,0.1,0,0.4,0h24.4c0.2,0,0.3,0,0.3,0c0,0,0,0.1,0,0.3C82.7,31.4,82.7,73.4,82.7,87.1z"></path>
	<path d="M73.6,38.8l-0.4-0.2L62.8,51.9h6.6L66.8,61l-0.1,0.2l0.2,0.1c0,0,0.1,0,0.1,0l0.2,0.1l10-12.9l0.3-0.4h-6.6L73.6,38.8z"></path>
	<path d="M47,16.1c-0.6-2.2-2.4-3.5-4.8-3.5c-1.1,0-1.8,0-2.9,0c0-0.5,0-1.1,0-1.6c-0.1-1.1-0.7-2.1-1.7-2.7   c-0.2-0.1-0.4-0.2-0.7-0.3c-0.1,0-0.2-0.1-0.3-0.1L22.9,7.7l-0.7,0.2c-1.5,0.6-2.3,1.7-2.4,3.2c0,0.5,0,0.9,0,1.4l-0.5,0   c-0.7,0-0.8,0-1.9,0c-0.6,0-1.5,0.1-2.3,0.5c-1.7,0.9-2.7,2.5-2.7,4.6l0,69.2l0,0.2c0,0.2,0,0.3,0,0.5c0.1,1.7,0.7,2.9,1.9,3.7   c0.4,0.3,0.9,0.5,1.3,0.7l0.5,0.2l26.9,0.1l0.5-0.2c2.3-0.7,3.6-2.5,3.6-4.9c0-13.7,0-55.8,0-69.6C47.2,17.1,47.1,16.5,47,16.1z    M17.3,87.2V17.8c0-0.2,0-0.3,0-0.4c0,0,0.1,0,0.4,0H42c0.2,0,0.3,0,0.3,0c0,0,0,0.1,0,0.3c0,13.7,0,55.7,0,69.4c0,0.2,0,0.3,0,0.3   c0,0-0.1,0-0.4,0h-3.7c-7.3,0-13.3,0-20.6,0c-0.1,0-0.3,0-0.4,0C17.3,87.5,17.3,87.4,17.3,87.2z"></path>
	<path d="M26.5,61l-0.1,0.2l0.2,0.1c0,0,0.1,0,0.1,0l0.2,0.1l10-12.9l0.3-0.4h-6.6l2.6-9.3l-0.4-0.2L22.5,51.9H29L26.5,61z"></path>
</g>
</svg>
