<?xml version="1.0" encoding="UTF-8"?>
<!-- Generator: Adobe Illustrator 23.1.1, SVG Export Plug-In . SVG Version: 6.00 Build 0)  -->
<svg xmlns="http://www.w3.org/2000/svg" xmlns:xlink="http://www.w3.org/1999/xlink" version="1.1" id="Layer_1" x="0px" y="0px" viewBox="0 0 343 100" style="enable-background:new 0 0 343 100;" xml:space="preserve">
<style type="text/css">
	.st0{fill:#231F20;}
</style>
<g>
	<path class="st0" d="M304.8,52.9c-1.9,10-4.1,15.1-8.6,19.7c-3.6,3.6-9.1,6-16,6c-8.6,0-17.4-5.3-17.4-16.6c0-3.1,0.6-6.7,1-9.1   c1.9-10,4.1-15.1,8.6-19.7c3.6-3.6,9.1-6,16-6c8.6,0,17.4,5.3,17.4,16.6C305.8,46.9,305.2,50.6,304.8,52.9z M286.8,40.4   c-1.9,0-3.3,0.6-4.5,1.7c-2,2-3.2,5.7-4.2,10.8c-0.9,4.9-1,6.6-1,7.3c0,3.3,1.5,5.2,4.5,5.2c1.9,0,3.3-0.6,4.5-1.7   c2-2,3.2-5.7,4.2-10.8c0.9-4.9,1-6.6,1-7.3C291.3,42.4,289.8,40.4,286.8,40.4z"></path>
	<path class="st0" d="M317,78.3c-4.6,0-8.4-3.9-8.4-8.4c0-4.6,3.9-8.5,8.4-8.5s8.4,3.9,8.4,8.5C325.4,74.5,321.6,78.3,317,78.3z    M324.9,55.9H314l5.7-44.3h16.9L324.9,55.9z"></path>
	<path class="st0" d="M48,50.9l8.9,27.2h-17l-7-25.2H27l-5.2,25.2H6.3l13.4-66.4h23.6c13.9,0,19,8.9,19,19.2   C62.4,38.2,57.9,46.7,48,50.9z M40.7,25.4h-8.2l-3,14.5h8.1c7.3,0,9.2-5.6,9.2-8.3C46.8,27.5,44.6,25.4,40.7,25.4z"></path>
	<path class="st0" d="M76.5,78H61.9l9.6-48.3h14.5L76.5,78z M81.1,25.2c-4.9,0-8.9-4-8.9-8.9s4-8.9,8.9-8.9c4.9,0,8.9,4,8.9,8.9   S86,25.2,81.1,25.2z"></path>
	<path class="st0" d="M124.4,78h-14l0.9-4.2c-2.7,3-6.7,4.7-11.5,4.7c-10.5,0-13.2-8-13.2-13.2c0-3.5,0.7-7.6,1.7-12.5   c2.3-11.2,4.1-17.4,7.6-20.9c3.9-3.9,8.1-4.7,12.4-4.7c4.5,0,8.3,1.6,10.8,4.6l4-20.3h14.5L124.4,78z M111.5,40.4   c-5.4,0-7,4-8.6,12.5c-0.4,2.3-1,5.7-1,7.6c0,1.5,0.2,4.9,4.4,4.9c5.4,0,7-4,8.6-12.5c0.4-2.3,1-5.7,1-7.6   C115.9,43.9,115.7,40.4,111.5,40.4z"></path>
	<path class="st0" d="M178.2,57.6h-28.9c-0.1,0.9-0.2,1.4-0.2,2c0,4,2.4,6.7,7.3,6.7c4.2,0,7.6-1.7,10.8-4.7l7.3,9.5   c-5,4.9-12.4,7.3-19.8,7.3c-8.1,0-19.4-3.7-19.4-17.8c0-17.8,8.9-33.5,25.9-33.5c10.6,0,18.8,6.7,18.8,18.3   C179.9,49.3,179.2,53.6,178.2,57.6z M160.3,39.2c-3.9,0-7.3,2.3-9.2,8.8h14.7c0.2-0.7,0.3-1.9,0.3-2.4   C166.1,41.7,164.1,39.2,160.3,39.2z"></path>
	<path class="st0" d="M235.5,40l-2.4,12.9h9.2l-0.3,1.4c-1.3,6.5-5.6,10.6-10.9,10.6c-3.3,0-6.7-1.3-6.7-7c0-3.5,0.9-9.1,1.7-13.2   c2-9.8,3-14.4,6-17.4c1.2-1.2,3.6-2.7,6.8-2.7c3.3,0,5.7,1.9,7.6,5.2l11.9-9.8c-3.6-5.2-9.2-8.9-18.4-8.9c-7.3,0-14.2,2.3-19.5,7.6   s-6.8,10.2-10,26.1c-0.4,1.9-0.8,4-1.1,6l11.9-20.4h7l-15,41.5c3.4,3.9,8.8,6.7,16.6,6.7c6.6,0,13.4-2.3,18.7-7.6   c5.6-5.6,7.8-11.6,9.7-22l1.7-8.9H235.5z"></path>
	<g>
		<polygon class="st0" points="215.8,25.6 201.1,55.8 198.4,27.8 184,27.8 190.9,73 180.5,92.5 195.4,92.5 230.6,25.6   "></polygon>
	</g>
</g>
</svg>
