<?xml version="1.0" encoding="UTF-8"?>
<svg xmlns="http://www.w3.org/2000/svg" xmlns:xlink="http://www.w3.org/1999/xlink" width="57px" height="85px" viewBox="0 0 57 85" version="1.1">
  <!-- Generator: Sketch 64 (93537) - https://sketch.com -->
  <title>Group 7</title>
  <desc>Created with Sketch.</desc>
  <g id="Page-1" stroke="none" stroke-width="1" fill="none" fill-rule="evenodd">
    <g id="Artboard" transform="translate(-417.000000, -298.000000)" fill="#231F20">
      <g id="Group-7" transform="translate(417.000000, 298.000000)">
        <path d="M20.9966,23.7081 C21.0196,22.3991 21.8316,21.6171 23.1796,21.6111 L38.3676,21.5751 C40.5736,21.5691 42.7796,21.5581 44.9856,21.5491 L48.3026,21.5311 L48.6036,21.5371 C50.2146,21.6051 50.9446,22.3371 50.9616,23.9141 C50.9796,25.0171 50.9796,26.1201 50.9736,27.2231 L51.0386,50.2611 C51.0496,54.0231 51.0676,57.7891 51.0846,61.5491 L51.0976,63.7351 C51.1096,65.9201 51.1156,68.1001 51.1156,70.2861 C51.1156,71.6321 50.3916,72.3971 49.0796,72.4351 C47.6566,72.4761 46.2266,72.4791 44.8026,72.4851 L31.6726,72.5411 C28.8616,72.5531 26.0436,72.5651 23.2256,72.5681 C22.9906,72.5681 22.7786,72.5151 22.6616,72.4851 L22.5376,72.4501 C21.6256,72.1181 21.1376,71.4471 21.1316,70.5081 C21.1086,68.2761 21.0966,66.0411 21.0906,63.8061 L21.0496,50.4881 C21.0436,47.3171 21.0376,44.1461 21.0256,40.9731 L21.0026,37.1441 C20.9906,34.5871 20.9786,32.0291 20.9736,29.4731 C20.9676,27.5521 20.9616,25.6311 20.9966,23.7081 M39.1736,79.8501 C38.8496,80.6791 38.2036,81.3351 37.3616,81.6971 C36.9266,81.8851 36.4676,81.9801 36.0086,81.9801 C35.5906,81.9801 35.1796,81.9001 34.7856,81.7421 C33.1376,81.0711 32.2676,79.0361 32.9196,77.3821 C33.2386,76.5711 33.8616,75.9261 34.6796,75.5711 C35.5026,75.2081 36.4206,75.2001 37.2446,75.5211 C39.0326,76.2321 39.8616,78.0911 39.1736,79.8501 M15.9736,58.4501 C15.9846,63.0831 16.0146,67.7141 16.0496,72.3441 L16.0606,73.6321 C16.0726,75.9921 16.0846,78.3471 16.1436,80.7041 C16.1726,81.6851 16.6316,82.5681 17.5146,83.3181 C18.5436,84.2081 19.8266,84.3381 20.9496,84.3381 L21.0436,84.3381 C24.3266,84.3151 27.6146,84.2911 30.9026,84.2771 L39.9146,84.2531 C41.1316,84.2501 42.3556,84.2421 43.5796,84.2331 C46.2856,84.2151 49.0026,84.1971 51.6976,84.2301 C53.0146,84.2421 54.2206,83.7711 55.0676,82.9171 C55.8386,82.1471 56.2386,81.1321 56.2268623,79.9831 C56.1976,77.5911 56.1976,75.2041 56.1976,72.8121 C56.2036,71.2771 56.2036,69.7441 56.1976,68.2081 C56.1856,64.6911 56.1676,61.1731 56.1506,57.6531 L56.1216,50.6221 C56.1036,47.1971 56.0856,43.8021 56.0746,40.4051 L56.0616,36.6201 C56.0556,34.0991 56.0496,31.5791 56.0386,29.0581 L56.0326,28.0221 C56.0206,24.9221 56.0146,21.8191 55.9616,18.7201 C55.9326,17.0961 54.3736,15.1461 52.4036,15.0721 C51.5146,15.0341 50.6266,15.0461 49.7326,15.0431 C44.0616,15.0551 38.3846,15.0721 32.7146,15.0931 L29.4916,15.1021 C26.2676,15.1111 23.0436,15.1201 19.8206,15.1691 C18.1556,15.1931 16.9786,16.0251 16.1146,17.7841 C16.0966,17.8581 16.0796,17.9401 16.0606,18.0281 C15.9966,18.3021 15.9136,18.6431 15.9086,18.9601 C15.8726,21.4901 15.8726,24.0171 15.8726,26.5431 C15.8726,29.5461 15.8786,32.5461 15.8966,35.5461 L15.9316,39.8491 C15.9496,42.2481 15.9676,44.6401 15.9736,47.0391 C15.9786,48.9411 15.9786,50.8431 15.9736,52.7481 C15.9736,54.6501 15.9676,56.5491 15.9736,58.4501" id="Fill-1"></path>
        <path d="M0.8711,13.6104 C2.9351,8.2464 6.3641,4.4024 11.5081,2.1694 C15.1821,0.5754 18.9801,0.2414 22.8911,1.0414 C23.9841,1.2654 24.6021,1.9914 24.4581,2.8774 C24.3051,3.8144 23.5211,4.2694 22.3431,4.1034 C22.1551,4.0764 21.9681,4.0464 21.7811,4.0134 C19.7081,3.6534 17.6431,3.6554 15.5841,4.1244 C11.5321,5.0484 8.3281,7.2204 5.9071,10.5974 C4.7101,12.2674 4.0771,14.1674 3.4701,16.0864 C3.2651,16.7344 2.7871,17.1454 2.1811,17.1194 C1.6971,17.0984 1.1111,16.8344 0.7901,16.4794 C0.5251,16.1874 0.4871,15.5964 0.5201,15.1514 C0.5631,14.5684 0.7761,13.9984 0.8711,13.6104" id="Fill-3"></path>
        <path d="M7.229,15.8477 C9.151,10.4127 14.214,6.9967 19.791,7.2587 C20.518,7.2937 21.247,7.3837 21.965,7.5067 C22.837,7.6557 23.395,8.4267 23.282,9.2407 C23.162,10.1077 22.515,10.6227 21.591,10.5917 C20.349,10.5487 19.083,10.3387 17.869,10.5027 C14.303,10.9827 11.847,13.0177 10.401,16.2857 C10.172,16.8037 10.049,17.3677 9.835,17.8927 C9.504,18.7067 8.738,19.0677 7.941,18.8237 C7.18,18.5907 6.731,17.7987 6.916,16.9697 C7.014,16.5317 7.157,16.1037 7.229,15.8477" id="Fill-5"></path>
      </g>
    </g>
  </g>
</svg>
