<?xml version="1.0" encoding="UTF-8"?>
<!-- Generator: Adobe Illustrator 22.1.0, SVG Export Plug-In . SVG Version: 6.00 Build 0)  -->
<svg xmlns="http://www.w3.org/2000/svg" xmlns:xlink="http://www.w3.org/1999/xlink" version="1.1" id="Layer_1" x="0px" y="0px" viewBox="0 0 100 100" style="enable-background:new 0 0 100 100;" xml:space="preserve">
<style type="text/css">
	.st0{fill:#010101;}
</style>
<g>
	<path d="M87.7,56.3c-1.8,0-3.5,1.1-4.2,2.7H72.5v-7.1h11.2c1.1,0,1.9-0.9,1.9-1.9c0-1.1-0.9-1.9-1.9-1.9H72.5V41h3.2   c1.6,0,3.1-0.6,4.3-1.8l5.4-5.5c1.7,0.6,3.7,0.2,4.9-1.1c0.9-0.9,1.4-2,1.4-3.3c0-1.2-0.5-2.4-1.4-3.3c-1.8-1.8-4.8-1.8-6.6,0   c-0.9,0.9-1.4,2-1.4,3.3c0,0.6,0.1,1.1,0.3,1.7l-5.4,5.6c-0.4,0.4-1,0.6-1.6,0.6h-3.2v-2.2c0-4.1-3.3-7.4-7.4-7.4h-2.2v-7.4   c1.7-0.7,2.7-2.4,2.7-4.2c0-2.6-2.1-4.7-4.6-4.7c-2.6,0-4.7,2.1-4.7,4.7c0,1.8,1.1,3.5,2.7,4.2v7.4H52v-10c0-1.1-0.9-1.9-1.9-1.9   c-1.1,0-1.9,0.9-1.9,1.9v10H41v-3.2c0-1.6-0.6-3.1-1.8-4.3L35.2,16c0.6-1.7,0.2-3.6-1.1-4.9c-1.7-1.8-4.8-1.8-6.6,0   c-1.8,1.8-1.8,4.8,0,6.6c1.3,1.3,3.2,1.7,4.9,1.1l4.1,4.1c0.4,0.4,0.6,1,0.6,1.5v3.2H35c-0.6,0-1.3,0.1-1.8,0.2   c-0.5,0.1-0.9,0.4-1.2,0.9c-0.3,0.4-0.3,1-0.2,1.4c0.1,0.5,0.4,0.9,0.9,1.2c0.4,0.3,1,0.3,1.5,0.2c0.3-0.1,0.6-0.1,0.9-0.1h30.1   c2,0,3.6,1.6,3.6,3.6v30.1c0,0.3,0,0.6-0.1,0.9c-0.1,0.5-0.1,1,0.2,1.4c0.3,0.4,0.7,0.8,1.2,0.9c0.2,0,0.3,0.1,0.5,0.1   c0.9,0,1.6-0.6,1.9-1.4c0.2-0.6,0.2-1.2,0.2-1.8v-2.2h10.9c0.7,1.7,2.4,2.7,4.2,2.7c2.6,0,4.6-2.1,4.6-4.7   C92.4,58.4,90.3,56.3,87.7,56.3z"></path>
	<path d="M67.5,81.3l-4.1-4.1c-0.4-0.4-0.6-1-0.6-1.5v-3.2H65c0.6,0,1.3-0.1,1.8-0.2c0.5-0.1,0.9-0.4,1.2-0.9c0.3-0.4,0.3-1,0.2-1.4   c-0.1-0.5-0.4-0.9-0.9-1.2c-0.4-0.3-1-0.3-1.5-0.2c-0.3,0.1-0.6,0.1-0.9,0.1H34.9c-2,0-3.6-1.6-3.6-3.6V34.9c0-0.3,0-0.6,0.1-0.9   c0.1-0.5,0.1-1-0.2-1.4c-0.3-0.4-0.7-0.8-1.2-0.9c-1.1-0.3-2.1,0.4-2.3,1.4c-0.2,0.6-0.2,1.2-0.2,1.8v2.2H16.5   c-0.7-1.7-2.4-2.7-4.2-2.7c-2.6,0-4.6,2.1-4.6,4.7c0,2.6,2.1,4.7,4.6,4.7c1.8,0,3.5-1.1,4.2-2.7h10.9V48H16.3   c-1.1,0-1.9,0.9-1.9,1.9s0.9,1.9,1.9,1.9h11.2V59h-3.2c-1.6,0-3.1,0.6-4.3,1.8l-5.4,5.5c-1.7-0.6-3.7-0.2-4.9,1.1   c-0.9,0.9-1.4,2-1.4,3.3c0,1.2,0.5,2.4,1.4,3.3c1.8,1.8,4.8,1.8,6.6,0c0.9-0.9,1.4-2,1.4-3.3c0-0.6-0.1-1.1-0.3-1.7l5.4-5.6   c0.4-0.4,1-0.6,1.6-0.6h3.2V65c0,4.1,3.3,7.4,7.4,7.4h2.2v7.4c-1.7,0.7-2.7,2.4-2.7,4.2c0,2.6,2.1,4.7,4.6,4.7   c2.6,0,4.7-2.1,4.7-4.7c0-1.8-1.1-3.5-2.7-4.2v-7.4H48v10c0,1.1,0.9,1.9,1.9,1.9c1.1,0,1.9-0.9,1.9-1.9v-10H59v3.2   c0,1.6,0.6,3.1,1.8,4.3l4.1,4.1c-0.6,1.7-0.2,3.6,1.1,4.9c0.9,0.9,2,1.4,3.3,1.4c1.2,0,2.4-0.5,3.3-1.4c1.8-1.8,1.8-4.8,0-6.6   C71.2,81.1,69.2,80.7,67.5,81.3z"></path>
	<path d="M39.2,59.8c0.1,3.1,2.8,5.5,6.2,5.5c1.8,0,3.4-0.7,4.6-1.9c1.2,1.2,2.8,1.9,4.6,1.9c3.2,0,5.9-2.3,6.2-5.2   c1.9-1.2,3.1-3.2,3.1-5.3c0-1.5-0.6-2.9-1.7-4.1c1.1-1.2,1.7-2.6,1.7-4.1c0-2.7-1.9-5.1-4.7-6c0-0.3,0.1-0.5,0.1-0.8   c0-2.8-2.4-5-5.4-5c-1.4,0-2.8,0.5-3.8,1.5c-1-0.9-2.4-1.5-3.8-1.5c-3,0-5.4,2.2-5.4,5c0,0.3,0,0.5,0.1,0.8c-2.8,0.9-4.7,3.3-4.7,6   c0,1.3,0.4,2.6,1.3,3.7c-0.8,1.2-1.3,2.5-1.3,3.9C36.2,56.3,37.3,58.4,39.2,59.8z M44.5,40.9L44.5,40.9L44.5,40.9   C44.4,40.9,44.4,40.9,44.5,40.9l-0.1-0.2c-0.2-0.2-0.4-0.6-0.4-1c0-1,1-1.8,2.3-1.8c1.2,0,2.3,0.8,2.3,1.8c0,0.9,0.7,1.6,1.6,1.6   c0.9,0,1.6-0.7,1.6-1.6c0-1,1-1.8,2.3-1.8c1.2,0,2.3,0.8,2.3,1.8c0,0.2,0,0.3-0.1,0.5c-0.7,0.1-1.4,0.3-2,0.5   c-0.8,0.3-1.2,1.3-0.8,2.1c0.4,0.8,1.3,1.2,2.1,0.9c0.5-0.2,1.1-0.3,1.6-0.3H57c2.1,0,3.8,1.4,3.8,3.2c0,1.1-0.7,2.1-1.8,2.7   c-0.5,0.3-0.8,0.8-0.8,1.4c0,0.6,0.3,1.1,0.8,1.4v0c1.1,0.6,1.8,1.6,1.8,2.7c0,0.7-0.3,1.3-0.8,1.9c-0.7-1.2-1.9-2.1-3.3-2.5   c-0.4-0.1-0.8-0.1-1.2,0.1c-0.4,0.2-0.7,0.5-0.8,0.9c-0.1,0.4-0.1,0.8,0.1,1.2c0.2,0.4,0.5,0.7,0.9,0.8c1.2,0.4,2,1.3,2,2.3   c0,1.4-1.4,2.5-3,2.5c-1.7,0-3-1.1-3-2.5v-8.2c0-1.4,1.4-2.5,3-2.5c0.9,0,1.6-0.7,1.6-1.6c0-0.9-0.7-1.6-1.6-1.6   c-1.1,0-2.1,0.2-3,0.7v-1.1c0-0.9-0.7-1.6-1.6-1.6c-0.9,0-1.6,0.7-1.6,1.6v6.6c-0.3-0.2-0.7-0.3-1-0.4c-0.4-0.1-0.8-0.1-1.2,0.1   c-0.4,0.2-0.7,0.5-0.8,0.9c-0.1,0.4-0.1,0.8,0.1,1.2c0.2,0.4,0.5,0.7,0.9,0.8c1.2,0.4,2,1.3,2,2.3v2.7c0,1.4-1.4,2.5-3,2.5   c-1.7,0-3-1.1-3-2.5c0-0.6,0.3-1.2,0.7-1.6c0.3-0.3,0.5-0.7,0.5-1.1c0-0.4-0.2-0.8-0.5-1.1c-0.3-0.3-0.7-0.5-1.1-0.5   c-0.4,0-0.8,0.2-1.1,0.5c-0.2,0.2-0.4,0.5-0.6,0.7c-0.6-0.7-0.9-1.5-0.9-2.3c0-1.8,1.4-3.3,3.4-3.7c0.4-0.1,0.8-0.3,1-0.7   c0.2-0.4,0.3-0.8,0.2-1.2c-0.1-0.4-0.3-0.8-0.7-1c-0.4-0.2-0.8-0.3-1.2-0.2c-0.8,0.2-1.5,0.5-2.2,0.8c-0.3-0.5-0.5-1-0.5-1.5   c0-1.7,1.7-3.2,3.8-3.2c0.4,0,0.7-0.1,1-0.4C44.8,42.5,44.9,41.6,44.5,40.9z"></path>
</g>
</svg>
