<?xml version="1.0" encoding="UTF-8"?>
<svg xmlns="http://www.w3.org/2000/svg" xmlns:xlink="http://www.w3.org/1999/xlink" width="57px" height="52px" viewBox="0 0 57 52" version="1.1">
  <!-- Generator: Sketch 64 (93537) - https://sketch.com -->
  <title>Fill 1</title>
  <desc>Created with Sketch.</desc>
  <g id="Page-1" stroke="none" stroke-width="1" fill="none" fill-rule="evenodd">
    <g id="Artboard" transform="translate(-417.000000, -315.000000)" fill="#000000">
      <path d="M420.308014,358.043056 C420.359014,361.173056 422.806014,363.519056 425.942014,363.441056 C428.713014,363.375056 431.001014,360.853056 430.999015,357.944056 C430.996014,354.784056 427.941014,352.705056 425.542014,352.729056 C422.693014,352.754056 420.263014,355.252056 420.308014,358.043056 M469.764015,358.054056 C469.761014,355.111056 467.433014,352.776056 464.475014,352.746056 C461.524014,352.717056 459.048014,355.129056 459.039995,358.043056 C459.032014,360.964056 461.481014,363.406056 464.416014,363.404057 C467.404014,363.402056 469.766014,361.039056 469.764015,358.054056 M443.982014,328.933057 C447.009014,328.934056 449.302014,326.624056 449.301015,323.575056 C449.300014,320.634056 446.959014,318.301056 443.986014,318.277056 C441.076014,318.254056 438.604014,320.652056 438.579014,323.522056 C438.553014,326.552056 440.929014,328.932056 443.982014,328.933057 M434.257014,356.910056 C434.472014,356.936056 434.624014,356.966056 434.776014,356.966056 C441.562014,356.969056 448.349014,356.961056 455.135014,356.983067 C455.759014,356.985056 455.921014,356.717056 456.019014,356.181056 C456.285014,354.737056 456.886014,353.432056 457.933014,352.395056 C458.447014,351.885056 458.467014,351.505056 458.117014,350.875056 C454.658014,344.646056 451.238014,338.395056 447.805014,332.149056 C447.689014,331.941056 446.912014,332.001056 446.899014,332.102056 C445.363014,332.207056 444.300014,332.145056 442.765014,332.129056 C442.119014,332.123056 441.771014,332.184056 441.436014,332.769056 C438.809014,337.351056 436.146014,341.913056 433.495014,346.481056 C432.604014,348.019056 431.716014,349.554056 430.805014,351.127056 C432.737014,352.627056 433.791014,354.603056 434.257014,356.910056 M438.052014,329.916056 C436.727014,328.568056 435.845014,327.001056 435.483014,325.122056 C434.627014,320.682056 437.564014,316.198056 442.030014,315.211056 C446.618014,314.197056 451.143014,316.933056 452.279014,321.352056 C452.916014,323.828056 452.580014,326.108056 451.245014,328.280056 C451.080014,328.549056 451.058014,329.070056 451.209014,329.345056 C454.784014,335.902056 458.406014,342.435056 461.972014,348.996056 C462.356014,349.704056 462.820014,349.551056 463.366014,349.486056 C469.956014,348.710056 475.014014,355.384056 472.368014,361.433056 C470.888014,364.818056 468.151014,366.637056 464.509014,366.731056 C461.030014,366.820056 458.429014,365.102056 456.789014,362.022056 C456.512014,361.502056 456.206014,361.330056 455.633014,361.331056 C448.566014,361.350056 441.498014,361.348056 434.432014,361.334056 C433.905014,361.333056 433.601014,361.470056 433.337014,361.968056 C431.504014,365.426056 427.843014,367.247056 424.196014,366.564056 C420.254014,365.823056 417.607014,363.021056 417.072014,359.014056 C416.392014,353.923056 420.617014,349.364056 425.971014,349.441056 C426.498014,349.449056 426.823014,349.355056 427.104014,348.867056 C430.664014,342.695056 434.246014,336.537056 437.821014,330.374056 C437.899014,330.240056 437.960014,330.098056 438.052014,329.916056" id="Fill-1"></path>
    </g>
  </g>
</svg>
