<?xml version="1.0" encoding="UTF-8"?>
<svg xmlns="http://www.w3.org/2000/svg" id="Layer_1" data-name="Layer 1" viewBox="0 0 100 100">
  <defs>
    <style>.cls-1{fill:#010101;}</style>
  </defs>
  <path class="cls-1" d="M86.56,48.68A25.58,25.58,0,0,0,39.48,30.89a19.94,19.94,0,0,0-17.76,2.45,19.74,19.74,0,0,0-8.6,15.54A19.89,19.89,0,0,0,1.57,66.77,19.44,19.44,0,0,0,2,70.66a19.91,19.91,0,0,0,19.5,16h57a19.79,19.79,0,0,0,8.11-38ZM78.45,81h-57a14.12,14.12,0,0,1-4.53-27.52l2-.72-.13-2.13A14.13,14.13,0,0,1,25,38a14.67,14.67,0,0,1,14.68-1l2.56,1.16,1.19-2.55A19.89,19.89,0,0,1,81.3,44a24.4,24.4,0,0,1-1.45,7.81A25.11,25.11,0,0,0,83,53.4,14.12,14.12,0,0,1,78.45,81Z"></path>
  <path class="cls-1" d="M50.05,43.17A8.07,8.07,0,0,0,45.67,58v9.59a4.37,4.37,0,0,0,8.73,0V58a8.07,8.07,0,0,0-4.35-14.87Z"></path>
</svg>
