<?xml version="1.0" encoding="UTF-8"?>
<svg xmlns="http://www.w3.org/2000/svg" id="Layer_1" data-name="Layer 1" viewBox="0 0 100 100">
  <defs>
    <style>.cls-1{fill:#010101;}</style>
  </defs>
  <path class="cls-1" d="M35.7,75.28A14.3,14.3,0,1,0,50,61a14.32,14.32,0,0,0-14.3,14.3Zm22.09,0A7.79,7.79,0,1,1,50,67.49a7.79,7.79,0,0,1,7.79,7.79Z"></path>
  <path class="cls-1" d="M28.2,57.31a3.25,3.25,0,0,0,5,4.14,21.75,21.75,0,0,1,33.56,0,3.25,3.25,0,0,0,5-4.14,28.25,28.25,0,0,0-43.6,0Z"></path>
  <path class="cls-1" d="M32.85,36.83a42,42,0,0,0-13.62,9.62A3.25,3.25,0,1,0,24,50.92,35.18,35.18,0,0,1,49.76,39.8,35.59,35.59,0,0,1,76,51.4,3.25,3.25,0,1,0,80.81,47a42,42,0,0,0-48-10.19Z"></path>
  <path class="cls-1" d="M27.55,24.74a55.06,55.06,0,0,0-18,12.72,3.26,3.26,0,0,0,4.75,4.46,48.68,48.68,0,0,1,71.3.29,3.26,3.26,0,0,0,4.6.18,3.23,3.23,0,0,0,.18-4.59A55.28,55.28,0,0,0,27.55,24.74Z"></path>
</svg>
