<?xml version="1.0" encoding="UTF-8"?>
<svg xmlns="http://www.w3.org/2000/svg" xmlns:xlink="http://www.w3.org/1999/xlink" width="57px" height="98px" viewBox="0 0 57 98" version="1.1">
  <!-- Generator: Sketch 64 (93537) - https://sketch.com -->
  <title>Group 11</title>
  <desc>Created with Sketch.</desc>
  <g id="Page-1" stroke="none" stroke-width="1" fill="none" fill-rule="evenodd">
    <g id="Artboard" transform="translate(-417.000000, -292.000000)" fill="#231F20">
      <g id="Group-11" transform="translate(417.000000, 292.000000)">
        <path d="M5.4521,68.4683 L5.4521,14.3413 C5.4521,12.9763 5.9391,12.4943 7.3051,12.4943 L49.3521,12.4943 C50.6401,12.4943 51.1461,12.9953 51.1461,14.2793 C51.1491,33.1093 51.1491,71.5153 51.1461,90.3443 C51.1461,91.6833 50.6691,92.1603 49.3261,92.1603 L40.3801,92.1603 C30.3581,92.1603 17.3641,92.1603 7.3391,92.1523 C7.0141,92.1523 6.5511,92.1143 6.1601,91.9413 C5.6651,91.7163 5.4521,91.2773 5.4521,90.4643 C5.4551,88.7143 5.4551,79.1813 5.4521,68.4683 M55.1741,14.1743 C55.1741,13.4763 55.1061,12.8893 54.9631,12.3843 C54.2851,10.0033 52.2411,8.5033 49.6231,8.4733 C47.7861,8.4533 42.8981,8.4553 40.7041,8.4763 C40.5201,8.4673 40.4731,8.4533 40.4731,8.4533 C40.4711,8.4493 40.4431,8.4033 40.4431,8.2163 C40.4641,7.2563 40.4711,6.1203 40.4001,4.9913 C40.3271,3.8713 39.7321,2.9343 38.6771,2.2803 C38.4361,2.1313 38.1801,2.0143 37.9221,1.8983 C37.8151,1.8493 37.7051,1.7993 37.5981,1.7473 L19.1871,1.7123 L18.9071,1.8163 C18.8401,1.8543 18.7771,1.8913 18.7061,1.9183 C17.1301,2.5373 16.2921,3.6533 16.2121,5.2363 C16.1651,6.1393 16.1591,7.1153 16.1881,8.2213 C16.1921,8.3983 16.1611,8.4453 16.1651,8.4473 C16.1611,8.4483 16.0781,8.4513 15.9141,8.4753 L14.8921,8.4653 C13.3031,8.4453 8.6911,8.4283 7.0681,8.4933 C6.3441,8.5253 5.2881,8.6553 4.3701,9.1043 C2.4031,10.0643 1.4081,11.7983 1.41407303,14.2563 C1.4181,26.0563 1.4181,53.3033 1.4181,76.5563 L1.4211,90.0933 L1.4181,90.3103 C1.4181,90.5003 1.41407303,90.6883 1.4241,90.8783 C1.5011,92.7183 2.2091,94.1093 3.5251,95.0123 C4.0331,95.3583 4.6031,95.6043 5.1551,95.8403 C5.3981,95.9473 5.6421,96.0513 5.8831,96.1643 L50.6321,96.1973 L50.8621,96.1123 C50.9451,96.0773 51.0261,96.0473 51.1091,96.0213 C53.7741,95.1943 55.1815542,93.2893 55.1815542,90.5143 C55.1821,71.5923 55.1821,33.0953 55.1741,14.1743" id="Fill-1"></path>
        <path d="M7.3081,13.2105 C6.3391,13.2105 6.1641,13.3775 6.1641,14.3395 L6.1641,90.4625 C6.1641,91.1635 6.3391,91.2395 6.4501,91.2885 C6.6601,91.3835 6.9731,91.4365 7.3361,91.4365 C17.3621,91.4455 30.3591,91.4455 40.3791,91.4455 L49.3241,91.4455 C50.2721,91.4455 50.4331,91.2925 50.4331,90.3445 C50.4401,71.5165 50.4401,33.1095 50.4331,14.2805 C50.4331,13.3885 50.2521,13.2105 49.3521,13.2105 L7.3081,13.2105 Z M49.3241,92.8755 L40.3791,92.8755 C30.3591,92.8755 17.3621,92.8755 7.3361,92.8645 C6.7641,92.8645 6.2691,92.7735 5.8651,92.5935 C4.7421,92.0835 4.7421,90.8635 4.7421,90.4625 L4.7421,14.3395 C4.7421,12.5935 5.5581,11.7805 7.3081,11.7805 L49.3521,11.7805 C51.0401,11.7805 51.8551,12.6005 51.8551,14.2805 C51.8621,33.1095 51.8621,71.5165 51.8551,90.3445 C51.8551,92.0695 51.0541,92.8755 49.3241,92.8755 L49.3241,92.8755 Z M6.0461,95.4515 L50.5031,95.4825 L50.6211,95.4405 C50.6841,95.4135 50.7821,95.3745 50.8871,95.3435 C53.2651,94.6055 54.4711,92.9815 54.4711,90.5165 C54.4711,71.5915 54.4711,33.0965 54.4641,14.1725 C54.4641,13.5445 54.4001,13.0225 54.2751,12.5725 C53.6891,10.5155 51.8971,9.2145 49.6171,9.1875 C47.7841,9.1695 42.9101,9.1735 40.7141,9.1905 C40.3721,9.1735 40.3021,9.1485 40.3021,9.1485 C39.7301,8.8805 39.7301,8.3955 39.7301,8.2145 C39.7441,7.4025 39.7591,6.2105 39.6881,5.0385 C39.6331,4.1495 39.1661,3.4245 38.3011,2.8875 C38.0851,2.7545 37.8611,2.6535 37.6321,2.5495 L37.4431,2.4615 L19.3151,2.4275 L19.1621,2.4865 C19.1541,2.4975 19.0711,2.5425 18.9731,2.5805 C17.6551,3.1005 16.9861,3.9785 16.9231,5.2725 C16.8741,6.1615 16.8671,7.1165 16.9021,8.2005 C16.9021,8.4195 16.8811,8.5775 16.8261,8.7095 L16.6581,9.1385 L16.0161,9.1835 L14.8871,9.1805 C13.2761,9.1595 8.6821,9.1485 7.0991,9.2085 C6.4431,9.2355 5.4811,9.3515 4.6861,9.7455 C2.9571,10.5885 2.1271,12.0635 2.1271,14.2525 L2.1271,90.3335 C2.1271,90.4905 2.1271,90.6725 2.1341,90.8515 C2.2041,92.4675 2.7901,93.6395 3.9261,94.4265 C4.3791,94.7335 4.9161,94.9635 5.4331,95.1885 C5.6351,95.2735 5.8441,95.3605 6.0461,95.4515 L6.0461,95.4515 Z M50.7541,96.9125 L5.5791,96.8125 C5.3421,96.6995 5.1121,96.5995 4.8741,96.4975 C4.3171,96.2605 3.6891,95.9915 3.1241,95.6065 C1.6041,94.5555 0.7951,92.9775 0.7121,90.9085 C0.704975183,90.7065 0.704975183,90.5115 0.704975183,90.3105 L0.7121,90.0685 L0.704975183,14.2565 C0.6911,11.5435 1.8551,9.5395 4.0581,8.4615 C5.0771,7.9605 6.2411,7.8135 7.0431,7.7785 C8.7301,7.7155 13.4231,7.7405 14.9011,7.7515 L15.4801,7.7575 C15.4451,6.8555 15.4591,6.0005 15.5011,5.1985 C15.5911,3.3445 16.6091,1.9775 18.4431,1.2525 L19.1891,0.9985 L37.8961,1.1025 L38.2101,1.2415 C38.5101,1.3815 38.7821,1.5065 39.0541,1.6705 C40.3161,2.4585 41.0271,3.5915 41.1111,4.9475 C41.1741,5.9555 41.1741,6.9665 41.1671,7.7515 C43.6281,7.7435 47.9231,7.7435 49.6321,7.7575 C52.5741,7.7925 54.8751,9.4905 55.6481,12.1895 C55.8091,12.7675 55.8861,13.4125 55.8861,14.1725 C55.8921,33.0965 55.8921,71.5915 55.8921,90.5165 C55.8921,93.5905 54.2681,95.7865 51.3181,96.7035 L50.7541,96.9125 Z" id="Fill-3"></path>
        <path d="M7.3042,12.9083 C6.1672,12.9083 5.8732,13.2023 5.8732,14.3393 L5.8732,90.4663 C5.8732,91.2833 6.1102,91.4553 6.3312,91.5533 C6.5842,91.6683 6.9282,91.7343 7.3372,91.7343 C17.3622,91.7413 30.3552,91.7413 40.3812,91.7413 L49.3272,91.7413 C50.4392,91.7413 50.7252,91.4553 50.7252,90.3433 C50.7332,71.5193 50.7332,33.1063 50.7252,14.2823 C50.7252,13.2273 50.4062,12.9083 49.3512,12.9083 L7.3042,12.9083 Z M49.3272,92.5753 L40.3812,92.5753 C30.3552,92.5753 17.3622,92.5753 7.3372,92.5683 C6.8052,92.5683 6.3472,92.4873 5.9872,92.3243 C5.1372,91.9383 5.0392,91.0793 5.0392,90.4663 L5.0392,14.3393 C5.0392,12.7533 5.7182,12.0743 7.3042,12.0743 L49.3512,12.0743 C50.8812,12.0743 51.5592,12.7533 51.5592,14.2823 C51.5682,33.1063 51.5682,71.5193 51.5592,90.3433 C51.5592,91.9073 50.8892,92.5753 49.3272,92.5753 L49.3272,92.5753 Z M5.9792,95.7483 L50.5542,95.7833 L50.9552,95.6253 C53.4572,94.8493 54.7652,93.0913 54.7652,90.5153 C54.7652,71.5933 54.7652,33.0983 54.7572,14.1763 C54.7572,13.4973 54.6912,12.9653 54.5602,12.4993 C53.9302,10.3003 52.0342,8.9183 49.6222,8.8933 C47.7982,8.8773 42.8912,8.8773 40.7082,8.8933 C40.5202,8.8853 40.4062,8.8683 40.3412,8.8523 L40.1772,8.7953 L40.0952,8.6393 C40.0462,8.5413 40.0292,8.4103 40.0292,8.2143 C40.0462,7.2493 40.0542,6.1213 39.9802,5.0173 C39.9152,4.0363 39.3912,3.2103 38.4602,2.6373 C38.2392,2.4983 37.9932,2.3923 37.7482,2.2863 L37.5032,2.1633 L19.2592,2.1313 L19.0542,2.2123 C18.9812,2.2533 18.9082,2.2863 18.8342,2.3193 C17.4282,2.8753 16.7002,3.8403 16.6262,5.2623 C16.5852,6.1543 16.5772,7.1183 16.6012,8.2143 L16.6012,8.3213 L16.7242,8.4763 L16.3562,8.8443 L15.9802,8.8933 L14.8922,8.8853 C13.2982,8.8683 8.7102,8.8523 7.0832,8.9093 C6.3962,8.9423 5.3992,9.0653 4.5562,9.4823 C2.7412,10.3653 1.8252,11.9683 1.83314805,14.2583 L1.83314805,90.3263 C1.83314805,90.4913 1.83314805,90.6783 1.8422,90.8593 C1.9072,92.5513 2.5532,93.8353 3.7632,94.6693 C4.2292,94.9803 4.7692,95.2173 5.2922,95.4383 C5.5372,95.5523 5.7582,95.6423 5.9792,95.7483 L5.9792,95.7483 Z M50.7182,96.6163 L5.7012,96.5413 C5.4642,96.4273 5.2272,96.3293 4.9902,96.2233 C4.4012,95.9693 3.8202,95.7163 3.2892,95.3563 C1.8492,94.3663 1.0812,92.8633 1.0072,90.8913 C0.999155513,90.6963 0.999155513,90.5073 0.999155513,90.3113 L1.0072,90.0753 L0.999155513,14.2583 C0.9912,11.6243 2.0622,9.7683 4.1882,8.7293 C5.1612,8.2553 6.2822,8.1083 7.0512,8.0753 C8.6782,8.0103 13.2982,8.0103 14.9012,8.0513 L15.7592,8.0593 C15.7432,6.9713 15.7512,6.0643 15.7922,5.2213 C15.8822,3.4803 16.8302,2.2043 18.5482,1.5253 L19.1852,1.2963 L37.7722,1.3703 L38.0922,1.5253 C38.3702,1.6403 38.6322,1.7623 38.8922,1.9183 C40.0702,2.6463 40.7332,3.7003 40.8142,4.9683 C40.8882,6.0313 40.8802,7.1183 40.8722,8.0593 C43.0962,8.0263 47.8472,8.0263 49.6302,8.0593 C52.4342,8.0833 54.6352,9.6953 55.3622,12.2703 C55.5172,12.8103 55.5912,13.4153 55.5912,14.1763 C55.5992,33.0983 55.5992,71.5933 55.5992,90.5153 C55.5992,93.4913 54.0952,95.5353 51.2322,96.4193 L50.7182,96.6163 Z" id="Fill-5"></path>
        <path d="M7.3013,13.6216 C6.7783,13.6216 6.6733,13.6946 6.6663,13.7016 C6.6593,13.7086 6.5833,13.8166 6.5833,14.3396 L6.5833,90.4666 C6.5833,90.8286 6.6383,90.9346 6.6453,90.9346 C6.7223,90.9476 6.9453,91.0206 7.3363,91.0206 C17.3623,91.0276 30.3593,91.0276 40.3793,91.0276 L49.3243,91.0276 C49.8273,91.0276 49.9313,90.9616 49.9453,90.9506 C49.9453,90.9476 50.0143,90.8396 50.0143,90.3456 C50.0213,71.5176 50.0213,33.1066 50.0143,14.2806 C50.0143,13.6216 50.0143,13.6216 49.3523,13.6216 L7.3013,13.6216 Z M49.3243,93.2906 L40.3793,93.2906 C30.3593,93.2906 17.3623,93.2906 7.3363,93.2826 C6.6943,93.2826 6.1433,93.1796 5.6903,92.9706 C4.7913,92.5606 4.3303,91.7186 4.3303,90.4666 L4.3303,14.3396 C4.3303,12.3636 5.3273,11.3586 7.3013,11.3586 L49.3523,11.3586 C51.2623,11.3586 52.2743,12.3706 52.2743,14.2806 C52.2813,33.1066 52.2813,71.5176 52.2743,90.3456 C52.2743,92.3006 51.2843,93.2906 49.3243,93.2906 L49.3243,93.2906 Z M6.1303,95.0336 L50.4193,95.0676 L50.6983,94.9606 C52.9363,94.2646 54.0513,92.7736 54.0513,90.5166 C54.0513,71.5916 54.0513,33.0996 54.0453,14.1756 C54.0453,13.5696 53.9893,13.0986 53.8713,12.6946 C53.3343,10.8116 51.7093,9.6296 49.6173,9.6086 C47.7843,9.5846 42.8823,9.5846 40.7143,9.6086 C40.4143,9.5916 40.2603,9.5666 40.1633,9.5466 L39.6813,9.3786 L39.4513,8.9606 C39.3333,8.7166 39.3193,8.4586 39.3193,8.2146 C39.3333,7.1926 39.3333,6.1156 39.2703,5.0626 C39.2213,4.3136 38.8243,3.6996 38.0853,3.2436 C37.8893,3.1216 37.6803,3.0336 37.4713,2.9436 L37.3323,2.8766 L19.3913,2.8456 L19.3223,2.8736 C19.3013,2.8946 19.2033,2.9396 19.1053,2.9816 C17.9413,3.4376 17.3973,4.1526 17.3343,5.2996 C17.3063,6.1366 17.2933,7.0466 17.3133,8.0756 L17.6693,8.5316 L16.6933,9.5216 L16.0723,9.6016 L14.8873,9.5986 C13.3673,9.5776 8.7303,9.5596 7.1133,9.6226 C6.2203,9.6676 5.4393,9.8386 4.8673,10.1216 C3.2993,10.8886 2.5463,12.2376 2.5463,14.2526 L2.5463,90.3266 C2.5463,90.4836 2.5463,90.6616 2.5523,90.8326 C2.6083,92.3086 3.1383,93.3706 4.1703,94.0816 C4.5683,94.3506 5.0553,94.5656 5.5723,94.7786 L6.1303,95.0336 Z M50.8513,97.3306 L5.3903,97.1846 L4.7003,96.8706 C4.0793,96.6126 3.4663,96.3406 2.8943,95.9496 C1.2493,94.8236 0.3773,93.1336 0.2933,90.9196 C0.286278346,90.7136 0.286278346,90.5166 0.286278346,90.3096 L0.2933,90.0516 L0.286278346,14.2566 C0.2803,11.3726 1.5213,9.2426 3.8773,8.0886 C4.9653,7.5556 6.1853,7.3986 7.0153,7.3606 C8.6963,7.2936 13.3533,7.2976 14.9223,7.3356 L15.0403,7.3396 C15.0333,6.5476 15.0473,5.8476 15.0823,5.1886 C15.1873,3.1736 16.3233,1.6396 18.2823,0.8616 L19.1823,0.5826 L38.0783,0.7256 L38.3983,0.8796 C38.6773,0.9906 38.9643,1.1306 39.2563,1.3046 C40.6503,2.1656 41.4313,3.4136 41.5293,4.9236 C41.5853,5.7396 41.5933,6.5686 41.5933,7.3356 C44.0113,7.3146 48.0273,7.3146 49.6453,7.3426 C52.7833,7.3736 55.2373,9.1866 56.0523,12.0736 C56.2273,12.6906 56.3043,13.3606 56.3043,14.1756 C56.3113,33.0996 56.3113,71.5916 56.3113,90.5166 C56.3113,93.7926 54.5823,96.1316 51.4443,97.1036 L50.8513,97.3306 Z" id="Fill-7"></path>
        <path d="M22.9014,67.0884 L22.8244,67.3684 L23.0884,67.4914 C23.1384,67.5154 23.1884,67.5354 23.2384,67.5554 L23.4754,67.6474 L38.7374,48.0424 L39.1684,47.4914 L29.1824,47.4914 L33.1764,33.3814 L32.5524,33.0714 L16.8434,53.2384 L26.8214,53.2384 L22.9014,67.0884 Z" id="Fill-9"></path>
      </g>
    </g>
  </g>
</svg>
