<?xml version="1.0" encoding="UTF-8" standalone="no"?>
<svg viewBox="0 0 258 258" version="1.1" width="258" height="258" xmlns:xlink="http://www.w3.org/1999/xlink" xmlns="http://www.w3.org/2000/svg"
     xmlns:svg="http://www.w3.org/2000/svg">
 <defs>
  <style
   id="style2">.cls-1{fill:#0a3a67;}.cls-2{fill:#1e9cd7;}.cls-3{fill:url(#verlauf);}.cls-4{fill:url(#verlauf-2);}.cls-5{fill:#0075be;}.cls-6{fill:url(#verlauf-3);}.cls-7{fill:url(#verlauf-4);}.cls-8{fill:#bbd5f1;}
  </style>
  <linearGradient id="verlauf" x1="107.41" y1="233.11" x2="108.2" y2="233.11" gradientUnits="userSpaceOnUse">
   <stop offset="0" stop-color="#bbd5f1" id="stop4" />
   <stop offset="0.07" stop-color="#b2d2ef" id="stop6" />
   <stop offset="0.18" stop-color="#98c8eb" id="stop8" />
   <stop offset="0.33" stop-color="#6fb9e4" id="stop10" />
   <stop offset="0.5" stop-color="#36a5db" id="stop12" />
   <stop offset="0.57" stop-color="#1e9cd7" id="stop14" />
   <stop offset="0.87" stop-color="#0075be" id="stop16" />
   <stop offset="0.99" stop-color="#005b97" id="stop18" />
  </linearGradient>
  <linearGradient id="verlauf-2" x1="108.2" y1="233.89" x2="110.11" y2="233.89" xlink:href="#verlauf" />
  <linearGradient id="verlauf-3" x1="196.83" y1="234.52" x2="198.28999" y2="234.52" xlink:href="#verlauf" />
  <linearGradient id="verlauf-4" x1="198.62" y1="233.5" x2="200.02" y2="233.5" xlink:href="#verlauf" />
  <linearGradient xlink:href="#verlauf" id="linearGradient1553" gradientUnits="userSpaceOnUse" x1="107.41" y1="233.11" x2="108.2" y2="233.11" />
 </defs>
 <g class="layer" id="g36" transform="translate(-0.00156962,13.934686)">
  <path class="cls-1"
        d="m 62.375625,175.50031 -28.2,-16.28 c -0.42,-0.29 -0.83,-0.57 -1.39,-0.89 -12.27,-7.1 -21.27,-15.62 -24.27,-21.05 l 4.25,7.41 10.75,18.73 v 0 l 30.34,52.55 a 28.28,28.28 0 0 0 24.52,14.16 h 21.29 l 28.659995,-16.54 z"
        id="svg_1" />
  <path class="cls-2"
        d="m 229.51562,155.16031 -35.46,20.48 -65.73,37.95 -28.659995,16.54 h 78.879995 a 28.31,28.31 0 0 0 24.53,-14.16 l 26.32,-45.59 v 0 l 18.7,-32.38 c -0.09,0.17 -0.2,0.32 -0.29,0.49 -3.77,6.97 -9.22,11.24 -18.29,16.67 z"
        id="svg_2" />
  <path class="cls-2"
        d="m 29.195625,56.970313 c 3.93,-6.81 10.32,-10.62 17.88,-12.39 a 48.4,48.4 0 0 1 10.23,-1.2 l 152.099995,0.12 c 0.65,-10.93 -1.64,-22 -5.87,-28.59 l -0.43,-0.75 a 28.33,28.33 0 0 0 -24.53,-14.16 H 78.405625 a 28.3,28.3 0 0 0 -24.52,14.16 l -16.86,29.2 v 0 z"
        id="svg_3" />
  <path class="cls-3" d="m 82.715625,187.16031 -0.79,-0.46 v 0 z" id="svg_4" style="fill:url(#linearGradient1553)" />
  <path class="cls-4" d="m 82.715625,187.16031 1.91,1.1 z" id="svg_5" style="fill:url(#verlauf-2)" />
  <path class="cls-5"
        d="m 81.925625,186.70031 c -16.69,-9.64 -20.87,-22.46 -22.64,-37.66 l -12.21,-104.459998 c -7.54,1.77 -14,5.58 -17.88,12.39 l -25.4,43.939998 a 28.31,28.31 0 0 0 0,28.32 l 8.93,15.46 -4.21,-7.41 c 3,5.43 12,13.95 24.31,21 0.56,0.32 1,0.6 1.39,0.89 l 28.2,16.28 v -0.09 z"
        id="svg_6" />
  <path class="cls-6" d="m 171.34562,188.76031 1.46001,-0.84 z" id="svg_7" style="fill:url(#verlauf-3)" />
  <path class="cls-7" d="m 174.51562,186.92031 v 0 l -1.4,0.81 z" id="svg_8" style="fill:url(#verlauf-4)" />
  <path class="cls-8"
        d="m 253.18562,100.91031 -33.21,-57.519997 v 0 l -16.34,-28.31 -0.11,-0.18 v 0 c 4.23,6.56 6.52,17.66 5.87,28.59 -0.08,1.22 -0.16,2.44 -0.31,3.65 v 0 l -12.1,103.679997 c -1.88,14.53 -6.31,26.83 -22.45,36.15 l 19.55,-11.29 v 0 l 35.43,-20.52 c 9,-5.43 14.49,-9.7 18.29,-16.67 l 5.35,-9.26 a 28.31,28.31 0 0 0 0.03,-28.32 z"
        id="svg_9" />
  <path class="cls-1"
        d="m 257.17563,21.870312 c -1.52,-2.09 -5,-3 -8.81,-0.71 -42.56,25.94 -81.80001,64.82 -116.63,115.559998 a 0.58,0.58 0 0 1 -0.47,0.25 1.27,1.27 0 0 1 -1,-0.35 l -19.3,-19.62 -13.000005,-12.45 c -9.77,-9.929998 -27,-4.14 -33.19,1.62 l -0.88,0.83 0.76,0.94 c 2.2,2.74 53.920005,67 61.390005,72.33 a 10.62,10.62 0 0 0 6.15,1.72 16.52,16.52 0 0 0 3.87,-0.48 21.61,21.61 0 0 0 13.79,-11.54 l 0.82,-1.6 c 28.2,-55.92 65.24,-105.089998 104.28,-138.449998 3.67999,-3.1 3.48999,-6.29 2.22,-8.05 z"
        id="svg_10" />
 </g>
</svg>
