<?xml version="1.0" encoding="UTF-8"?>
<svg xmlns="http://www.w3.org/2000/svg" width="100" height="101" fill="none" viewBox="0 0 100 101">
  <path fill="url(#a)" fill-rule="evenodd" d="M50.317 89.137c21.162 0 38.317-17.155 38.317-38.317S71.479 12.503 50.317 12.503 12 29.658 12 50.82s17.155 38.317 38.317 38.317ZM84.109 50.82c0 1.187-.062 2.36-.181 3.517l-6.833-1.831a1.843 1.843 0 1 0-.954 3.56l7.121 1.909a1.852 1.852 0 0 0 .083.02c-3.29 15.216-16.828 26.617-33.028 26.617-16.251 0-29.823-11.472-33.059-26.76l6.666-1.785a1.843 1.843 0 0 0-.954-3.561l-6.279 1.682a34.183 34.183 0 0 1-.166-3.368 33.639 33.639 0 0 1 6.431-19.835l4.998 4.998a1.843 1.843 0 1 0 2.607-2.607l-5.214-5.213a1.898 1.898 0 0 0-.054-.053c5.797-6.383 14.002-10.539 23.18-11.032v6.71a1.843 1.843 0 1 0 3.686 0v-6.71c9.327.5 17.649 4.784 23.46 11.343l-4.955 4.955a1.843 1.843 0 1 0 2.607 2.606l4.653-4.653a33.637 33.637 0 0 1 6.184 19.49Zm-34.14 13.743a9.44 9.44 0 0 0 9.44-9.44c0-4.46-3.093-8.197-7.25-9.185v-7.406a1.843 1.843 0 1 0-3.686 0V45.8c-4.503.717-7.945 4.618-7.945 9.323a9.44 9.44 0 0 0 9.44 9.44Zm4.914-9.44a4.915 4.915 0 1 1-9.83 0 4.915 4.915 0 0 1 9.83 0Z" clip-rule="evenodd"></path>
  <path fill="#000" fill-opacity=".2" fill-rule="evenodd" d="M50.317 89.137c21.162 0 38.317-17.155 38.317-38.317S71.479 12.503 50.317 12.503 12 29.658 12 50.82s17.155 38.317 38.317 38.317ZM84.109 50.82c0 1.187-.062 2.36-.181 3.517l-6.833-1.831a1.843 1.843 0 1 0-.954 3.56l7.121 1.909a1.852 1.852 0 0 0 .083.02c-3.29 15.216-16.828 26.617-33.028 26.617-16.251 0-29.823-11.472-33.059-26.76l6.666-1.785a1.843 1.843 0 0 0-.954-3.561l-6.279 1.682a34.183 34.183 0 0 1-.166-3.368 33.639 33.639 0 0 1 6.431-19.835l4.998 4.998a1.843 1.843 0 1 0 2.607-2.607l-5.214-5.213a1.898 1.898 0 0 0-.054-.053c5.797-6.383 14.002-10.539 23.18-11.032v6.71a1.843 1.843 0 1 0 3.686 0v-6.71c9.327.5 17.649 4.784 23.46 11.343l-4.955 4.955a1.843 1.843 0 1 0 2.607 2.606l4.653-4.653a33.637 33.637 0 0 1 6.184 19.49Zm-34.14 13.743a9.44 9.44 0 0 0 9.44-9.44c0-4.46-3.093-8.197-7.25-9.185v-7.406a1.843 1.843 0 1 0-3.686 0V45.8c-4.503.717-7.945 4.618-7.945 9.323a9.44 9.44 0 0 0 9.44 9.44Zm4.914-9.44a4.915 4.915 0 1 1-9.83 0 4.915 4.915 0 0 1 9.83 0Z" clip-rule="evenodd"></path>
  <defs>
    <linearGradient id="a" x1="50.317" x2="50.317" y1="12.503" y2="89.137" gradientUnits="userSpaceOnUse">
      <stop stop-color="#8896FF"></stop>
      <stop offset="1" stop-color="#CEA1FF"></stop>
    </linearGradient>
  </defs>
</svg>
