<?xml version="1.0" encoding="UTF-8"?>
<svg xmlns="http://www.w3.org/2000/svg" width="100" height="101" fill="none" viewBox="0 0 100 101">
  <path fill="#7079CC" d="M26.172 46a2.73 2.73 0 0 1-2.295-1.291 22.675 22.675 0 0 1-3.547-12.238c0-5.833 2.156-11.329 6.07-15.478 3.915-4.15 9.101-6.432 14.603-6.432 5.502 0 10.69 2.282 14.604 6.432 3.907 4.149 6.069 9.645 6.069 15.48a22.8 22.8 0 0 1-2.921 11.196 2.738 2.738 0 0 1-2.419 1.433 2.745 2.745 0 0 1-2.377-1.506 3.087 3.087 0 0 1 .047-2.939 16.67 16.67 0 0 0 2.135-8.183c0-8.848-6.792-16.045-15.138-16.045s-15.136 7.197-15.136 16.045c0 3.19.904 6.308 2.596 8.948.573.898.632 2.058.154 3.018A2.753 2.753 0 0 1 26.175 46h-.003Z"></path>
  <path fill="url(#a)" d="m50.666 46.996-.03-.01a3.003 3.003 0 0 1-.475-.27 1.394 1.394 0 0 1-.597-.993v-14.01l-.124-.597a7.76 7.76 0 0 0-1.296-2.944 6.924 6.924 0 0 0-1.807-1.743c-1.335-.886-2.918-1.305-4.66-1.305-1.188 0-2.301.139-3.441.558-2.422.886-4.356 2.903-4.598 5.904l-.018.472v26.154l-.039-.038-.313-.34-.363-.286a8.32 8.32 0 0 0-3.154-1.536l-.334-.07c-2.51-.482-5.017.4-7.023 2.574-3.177 3.45-3.06 7.472.042 10.922l6.857 7.731.003.006 6.834 7.714.041.059c.739.916 1.784 1.95 3.217 2.933 2.365 1.627 5.126 2.622 8.23 2.622h20.939l.644-.035a12.596 12.596 0 0 0 5.227-1.793c3.558-2.262 5.236-5.91 5.236-10.313v-18.23l-.086-.5a10.842 10.842 0 0 0-1.394-3.744c-1.606-2.62-4.128-4.164-7.153-4.592l-20.365-4.3ZM40.657 81.094c-.52-.59-12.746-14.397-13.83-15.605-1.122-1.246-1.137-1.831-.088-2.97.853-.922 1.379-.816 1.603-.769.334.081.646.232.916.443l5.401 5.81a2.793 2.793 0 0 0 3.09.693 2.85 2.85 0 0 0 1.777-2.649V32.058c.068-.85 1.205-1.027 2.15-1.027 1.226 0 1.563.443 1.672.59.15.21.256.448.31.7V45.85a7.276 7.276 0 0 0 3.062 5.667 7.96 7.96 0 0 0 2.679 1.246l.047.01 20.481 4.326c.07.015.142.03.216.038 1.373.177 2.35.768 2.982 1.796a4.99 4.99 0 0 1 .632 1.707v17.72c0 2.518-.794 4.246-2.427 5.286a6.69 6.69 0 0 1-2.776.95H47.618c-4.099 0-6.645-3.106-6.837-3.343a1.84 1.84 0 0 0-.124-.159Z"></path>
  <path fill="#000" fill-opacity=".2" d="m50.666 46.996-.03-.01a3.003 3.003 0 0 1-.475-.27 1.394 1.394 0 0 1-.597-.993v-14.01l-.124-.597a7.76 7.76 0 0 0-1.296-2.944 6.924 6.924 0 0 0-1.807-1.743c-1.335-.886-2.918-1.305-4.66-1.305-1.188 0-2.301.139-3.441.558-2.422.886-4.356 2.903-4.598 5.904l-.018.472v26.154l-.039-.038-.313-.34-.363-.286a8.32 8.32 0 0 0-3.154-1.536l-.334-.07c-2.51-.482-5.017.4-7.023 2.574-3.177 3.45-3.06 7.472.042 10.922l6.857 7.731.003.006 6.834 7.714.041.059c.739.916 1.784 1.95 3.217 2.933 2.365 1.627 5.126 2.622 8.23 2.622h20.939l.644-.035a12.596 12.596 0 0 0 5.227-1.793c3.558-2.262 5.236-5.91 5.236-10.313v-18.23l-.086-.5a10.842 10.842 0 0 0-1.394-3.744c-1.606-2.62-4.128-4.164-7.153-4.592l-20.365-4.3ZM40.657 81.094c-.52-.59-12.746-14.397-13.83-15.605-1.122-1.246-1.137-1.831-.088-2.97.853-.922 1.379-.816 1.603-.769.334.081.646.232.916.443l5.401 5.81a2.793 2.793 0 0 0 3.09.693 2.85 2.85 0 0 0 1.777-2.649V32.058c.068-.85 1.205-1.027 2.15-1.027 1.226 0 1.563.443 1.672.59.15.21.256.448.31.7V45.85a7.276 7.276 0 0 0 3.062 5.667 7.96 7.96 0 0 0 2.679 1.246l.047.01 20.481 4.326c.07.015.142.03.216.038 1.373.177 2.35.768 2.982 1.796a4.99 4.99 0 0 1 .632 1.707v17.72c0 2.518-.794 4.246-2.427 5.286a6.69 6.69 0 0 1-2.776.95H47.618c-4.099 0-6.645-3.106-6.837-3.343a1.84 1.84 0 0 0-.124-.159Z"></path>
  <defs>
    <linearGradient id="a" x1="49.862" x2="49.862" y1="25.124" y2="90.503" gradientUnits="userSpaceOnUse">
      <stop stop-color="#8896FF"></stop>
      <stop offset="1" stop-color="#CEA1FF"></stop>
    </linearGradient>
  </defs>
</svg>
