<?xml version="1.0" encoding="UTF-8"?>
<svg xmlns="http://www.w3.org/2000/svg" width="100" height="101" fill="none" viewBox="0 0 100 101">
  <g clip-path="url(#a)">
    <path fill="url(#b)" fill-rule="evenodd" d="M63.046 24.267a2.5 2.5 0 0 0-3.958.221 7.59 7.59 0 1 0 7.73 11.816l8.043 9.331a.409.409 0 0 1 .061.438L65.726 66.08a.408.408 0 0 1-.362.237l-24.38.526a.407.407 0 0 1-.26-.086L23.038 52.991a.409.409 0 0 1-.157-.31l-.28-9.706a.408.408 0 0 1 .414-.42l23.562.35a.408.408 0 0 1 .215.065l2.964 1.915c.19.122.244.375.122.564l-4.951 7.667a5.409 5.409 0 0 0-.826 3.588l.56 4.592a2.5 2.5 0 0 0 4.963-.605l-.56-4.592a.408.408 0 0 1 .063-.27l4.951-7.667c1.62-2.51.9-5.857-1.609-7.477l-2.964-1.915a5.408 5.408 0 0 0-2.854-.864l-23.562-.35a5.408 5.408 0 0 0-5.486 5.564l.22 7.65c-.451-.01-.911.1-1.329.346a16.37 16.37 0 0 0-2.68 1.972c-6.681 6.046-7.196 16.363-1.15 23.043 6.045 6.681 16.362 7.196 23.043 1.15a16.29 16.29 0 0 0 3.435-4.386c.217-.406.312-.845.295-1.274a5.41 5.41 0 0 0 1.654.222l23.343-.504c.025.091.055.182.091.271a16.252 16.252 0 0 0 6.302 7.656c7.569 4.888 17.667 2.715 22.556-4.854 4.888-7.569 2.715-17.667-4.854-22.556a16.251 16.251 0 0 0-9.57-2.595l.506-1.1a5.408 5.408 0 0 0-.817-5.79L63.046 24.267Zm.16 7.844-2.391-2.774h-.002a2.59 2.59 0 1 0 2.393 2.775ZM17.168 56.795c.5-.452 1.027-.85 1.576-1.195.325.505.737.958 1.223 1.336l16.016 12.468a2.49 2.49 0 0 0-1.248 1.129 11.29 11.29 0 0 1-2.383 3.04c-4.633 4.194-11.788 3.837-15.981-.797-4.193-4.633-3.836-11.788.797-15.98Zm59.935-3.494-6.834 14.868a5.4 5.4 0 0 1-1.104 1.58l.005.01a11.252 11.252 0 0 0 4.37 5.307c5.248 3.39 12.252 1.883 15.642-3.366 3.39-5.25 1.883-12.253-3.366-15.644a11.25 11.25 0 0 0-6.633-1.8 2.497 2.497 0 0 1-2.08-.955Z" clip-rule="evenodd"></path>
    <path fill="#000" fill-opacity=".2" fill-rule="evenodd" d="M63.046 24.267a2.5 2.5 0 0 0-3.958.221 7.59 7.59 0 1 0 7.73 11.816l8.043 9.331a.409.409 0 0 1 .061.438L65.726 66.08a.408.408 0 0 1-.362.237l-24.38.526a.407.407 0 0 1-.26-.086L23.038 52.991a.409.409 0 0 1-.157-.31l-.28-9.706a.408.408 0 0 1 .414-.42l23.562.35a.408.408 0 0 1 .215.065l2.964 1.915c.19.122.244.375.122.564l-4.951 7.667a5.409 5.409 0 0 0-.826 3.588l.56 4.592a2.5 2.5 0 0 0 4.963-.605l-.56-4.592a.408.408 0 0 1 .063-.27l4.951-7.667c1.62-2.51.9-5.857-1.609-7.477l-2.964-1.915a5.408 5.408 0 0 0-2.854-.864l-23.562-.35a5.408 5.408 0 0 0-5.486 5.564l.22 7.65c-.451-.01-.911.1-1.329.346a16.37 16.37 0 0 0-2.68 1.972c-6.681 6.046-7.196 16.363-1.15 23.043 6.045 6.681 16.362 7.196 23.043 1.15a16.29 16.29 0 0 0 3.435-4.386c.217-.406.312-.845.295-1.274a5.41 5.41 0 0 0 1.654.222l23.343-.504c.025.091.055.182.091.271a16.252 16.252 0 0 0 6.302 7.656c7.569 4.888 17.667 2.715 22.556-4.854 4.888-7.569 2.715-17.667-4.854-22.556a16.251 16.251 0 0 0-9.57-2.595l.506-1.1a5.408 5.408 0 0 0-.817-5.79L63.046 24.267Zm.16 7.844-2.391-2.774h-.002a2.59 2.59 0 1 0 2.393 2.775ZM17.168 56.795c.5-.452 1.027-.85 1.576-1.195.325.505.737.958 1.223 1.336l16.016 12.468a2.49 2.49 0 0 0-1.248 1.129 11.29 11.29 0 0 1-2.383 3.04c-4.633 4.194-11.788 3.837-15.981-.797-4.193-4.633-3.836-11.788.797-15.98Zm59.935-3.494-6.834 14.868a5.4 5.4 0 0 1-1.104 1.58l.005.01a11.252 11.252 0 0 0 4.37 5.307c5.248 3.39 12.252 1.883 15.642-3.366 3.39-5.25 1.883-12.253-3.366-15.644a11.25 11.25 0 0 0-6.633-1.8 2.497 2.497 0 0 1-2.08-.955Z" clip-rule="evenodd"></path>
    <path stroke="#7179CC" stroke-linecap="round" stroke-width="5" d="M12.989 28.958h32m-14.501-9h15"></path>
  </g>
  <defs>
    <linearGradient id="b" x1="73.094" x2="34.268" y1="30.635" y2="90.751" gradientUnits="userSpaceOnUse">
      <stop stop-color="#8896FF"></stop>
      <stop offset="1" stop-color="#CEA1FF"></stop>
    </linearGradient>
    <clipPath id="a">
      <path fill="#fff" d="M0 .503h100v100H0z"></path>
    </clipPath>
  </defs>
</svg>
