<?xml version="1.0" encoding="UTF-8"?>
<svg xmlns="http://www.w3.org/2000/svg" width="101" height="101" fill="none" viewBox="0 0 101 101">
  <path fill="url(#a)" fill-rule="evenodd" d="M30.226 17.23a2.5 2.5 0 0 1 3.104-1.693l22.928 6.743a5.408 5.408 0 0 1 3.828 4.42l.172 1.199a16.251 16.251 0 0 1 9.446-3.012c9.01 0 16.315 7.304 16.315 16.315 0 1.275-.146 2.517-.423 3.708l6.745-4.354a2.5 2.5 0 0 1 2.712 4.2L15.073 96.38a2.5 2.5 0 0 1-2.71-4.2l8.363-5.399c-.527-.087-1.054-.2-1.581-.341-8.703-2.333-13.868-11.28-11.536-19.983a16.375 16.375 0 0 1 1.182-3.11c.217-.434.544-.776.93-1.012l-4.337-6.307a5.408 5.408 0 0 1 1.59-7.65l19.983-12.49a5.409 5.409 0 0 1 2.866-.822h3.529a5.408 5.408 0 0 1 5.408 5.408v9.127c0 .095.034.188.095.261l2.961 3.554a2.5 2.5 0 0 1-3.841 3.2l-2.961-3.553a5.408 5.408 0 0 1-1.254-3.462v-9.127a.408.408 0 0 0-.408-.408h-3.528a.409.409 0 0 0-.217.062L9.624 52.618a.408.408 0 0 0-.12.577l5.5 8c.07.101.18.166.301.176l22.326 1.97a.408.408 0 0 0 .265-.069l20.195-13.669a.408.408 0 0 0 .175-.396l-3.13-21.796a.408.408 0 0 0-.289-.334L43.03 23.601a7.59 7.59 0 1 1-12.904-5.732c.006-.212.039-.426.101-.64Zm8.9 57.674L66.54 57.21a16.244 16.244 0 0 1-6.282-2.705 2.526 2.526 0 0 1-.224-.178L40.7 67.413a5.41 5.41 0 0 1-1.51.711c.246.352.405.772.443 1.23a16.293 16.293 0 0 1-.506 5.548v.002Zm-4.92-53.898 3.514 1.033a2.59 2.59 0 1 1-3.516-1.033h.002ZM13.113 65.892c-.273.588-.5 1.209-.675 1.86-1.617 6.035 1.965 12.24 8.001 13.857 6.036 1.617 12.24-1.965 13.857-8a11.29 11.29 0 0 0 .352-3.848 2.49 2.49 0 0 1 .436-1.625l-20.218-1.784a5.407 5.407 0 0 1-1.753-.46Zm50.103-17.395L60.89 32.3c.737.254 1.582.16 2.266-.326a11.251 11.251 0 0 1 6.548-2.087c6.25 0 11.315 5.066 11.315 11.315s-5.066 11.314-11.315 11.314c-2.444 0-4.7-.772-6.548-2.086l-.01-.007a5.402 5.402 0 0 0 .07-1.926Z" clip-rule="evenodd"></path>
  <path fill="#000" fill-opacity=".2" fill-rule="evenodd" d="M30.226 17.23a2.5 2.5 0 0 1 3.104-1.693l22.928 6.743a5.408 5.408 0 0 1 3.828 4.42l.172 1.199a16.251 16.251 0 0 1 9.446-3.012c9.01 0 16.315 7.304 16.315 16.315 0 1.275-.146 2.517-.423 3.708l6.745-4.354a2.5 2.5 0 0 1 2.712 4.2L15.073 96.38a2.5 2.5 0 0 1-2.71-4.2l8.363-5.399c-.527-.087-1.054-.2-1.581-.341-8.703-2.333-13.868-11.28-11.536-19.983a16.375 16.375 0 0 1 1.182-3.11c.217-.434.544-.776.93-1.012l-4.337-6.307a5.408 5.408 0 0 1 1.59-7.65l19.983-12.49a5.409 5.409 0 0 1 2.866-.822h3.529a5.408 5.408 0 0 1 5.408 5.408v9.127c0 .095.034.188.095.261l2.961 3.554a2.5 2.5 0 0 1-3.841 3.2l-2.961-3.553a5.408 5.408 0 0 1-1.254-3.462v-9.127a.408.408 0 0 0-.408-.408h-3.528a.409.409 0 0 0-.217.062L9.624 52.618a.408.408 0 0 0-.12.577l5.5 8c.07.101.18.166.301.176l22.326 1.97a.408.408 0 0 0 .265-.069l20.195-13.669a.408.408 0 0 0 .175-.396l-3.13-21.796a.408.408 0 0 0-.289-.334L43.03 23.601a7.59 7.59 0 1 1-12.904-5.732c.006-.212.039-.426.101-.64Zm8.9 57.674L66.54 57.21a16.244 16.244 0 0 1-6.282-2.705 2.526 2.526 0 0 1-.224-.178L40.7 67.413a5.41 5.41 0 0 1-1.51.711c.246.352.405.772.443 1.23a16.293 16.293 0 0 1-.506 5.548v.002Zm-4.92-53.898 3.514 1.033a2.59 2.59 0 1 1-3.516-1.033h.002ZM13.113 65.892c-.273.588-.5 1.209-.675 1.86-1.617 6.035 1.965 12.24 8.001 13.857 6.036 1.617 12.24-1.965 13.857-8a11.29 11.29 0 0 0 .352-3.848 2.49 2.49 0 0 1 .436-1.625l-20.218-1.784a5.407 5.407 0 0 1-1.753-.46Zm50.103-17.395L60.89 32.3c.737.254 1.582.16 2.266-.326a11.251 11.251 0 0 1 6.548-2.087c6.25 0 11.315 5.066 11.315 11.315s-5.066 11.314-11.315 11.314c-2.444 0-4.7-.772-6.548-2.086l-.01-.007a5.402 5.402 0 0 0 .07-1.926Z" clip-rule="evenodd"></path>
  <defs>
    <linearGradient id="a" x1="50.314" x2="50.314" y1="15.434" y2="96.779" gradientUnits="userSpaceOnUse">
      <stop stop-color="#8896FF"></stop>
      <stop offset="1" stop-color="#CEA1FF"></stop>
    </linearGradient>
  </defs>
</svg>
