<svg width="20" height="20" viewBox="0 0 20 20" fill="none" xmlns="http://www.w3.org/2000/svg">
<path fill-rule="evenodd" clip-rule="evenodd" d="M13.3322 8.33464C13.3322 11.0961 11.0936 13.3346 8.33219 13.3346C5.57077 13.3346 3.33219 11.0961 3.33219 8.33464C3.33219 5.57321 5.57077 3.33464 8.33219 3.33464C11.0936 3.33464 13.3322 5.57321 13.3322 8.33464ZM12.4202 13.6012C11.2913 14.4787 9.87279 15.0013 8.33219 15.0013C4.6503 15.0013 1.66553 12.0165 1.66553 8.33464C1.66553 4.65274 4.6503 1.66797 8.33219 1.66797C12.0141 1.66797 14.9989 4.65274 14.9989 8.33464C14.9989 9.87523 14.4763 11.2938 13.5987 12.4227L18.5048 17.3288L17.3263 18.5073L12.4202 13.6012Z" fill="black"/>
</svg>
