<svg width="16" height="16" viewBox="0 0 16 16" fill="none" xmlns="http://www.w3.org/2000/svg">
<g clip-path="url(#clip0_42126_107195)">
<path d="M10.9999 5.01069C11.303 5.01069 11.5989 5.03588 11.8909 5.07188C11.363 2.75357 8.92807 1 6.0001 1C2.68599 1 0 3.24491 0 6.01338C0 7.60952 0.898056 9.02563 2.291 9.94191L1.49997 11.5282L3.65487 10.6027C4.11696 10.7672 4.59713 10.9028 5.11 10.9658C5.03992 10.6599 5.00009 10.3462 5.00009 10.0243C5.00009 7.25978 7.69095 5.01069 10.9999 5.01069ZM8.0001 3.25587C8.41419 3.25587 8.75002 3.59274 8.75002 4.00798C8.75002 4.42335 8.41423 4.75998 8.0001 4.75998C7.58577 4.75998 7.25008 4.42335 7.25008 4.00798C7.25008 3.59271 7.58577 3.25587 8.0001 3.25587ZM4.00002 4.75998C3.58586 4.75998 3.25003 4.42335 3.25003 4.00798C3.25003 3.59274 3.58589 3.25587 4.00002 3.25587C4.41414 3.25587 4.75004 3.59274 4.75004 4.00798C4.75 4.42335 4.41411 4.75998 4.00002 4.75998Z" fill="#6E6E73"/>
<path d="M16 10.0242C16 7.80914 13.7608 6.01338 10.9999 6.01338C8.23896 6.01338 6.0001 7.80914 6.0001 10.0242C6.0001 12.2392 8.23896 14.035 10.9999 14.035C11.454 14.035 11.8859 13.9708 12.305 13.8797L15 15.0376L14.0679 13.1698C15.236 12.4356 16 11.3067 16 10.0242ZM9.50001 9.77353C9.08588 9.77353 8.74999 9.4368 8.74999 9.02136C8.74999 8.60612 9.08585 8.26949 9.50001 8.26949C9.91427 8.26949 10.25 8.60626 10.25 9.02136C10.25 9.43684 9.9142 9.77353 9.50001 9.77353ZM12.5 9.77353C12.0856 9.77353 11.75 9.4368 11.75 9.02136C11.75 8.60612 12.0856 8.26949 12.5 8.26949C12.9142 8.26949 13.25 8.60626 13.25 9.02136C13.25 9.43684 12.9142 9.77353 12.5 9.77353Z" fill="#6E6E73"/>
</g>
<defs>
<clipPath id="clip0_42126_107195">
<rect width="16" height="16" fill="white"/>
</clipPath>
</defs>
</svg>
