<svg width="16" height="16" viewBox="0 0 16 16" fill="none" xmlns="http://www.w3.org/2000/svg">
<path d="M10.8773 1.42493C12.308 1.12091 13.8581 1.56492 14.9088 2.72991C15.96 3.89363 16.2434 5.4803 15.7949 6.87208L15.7947 6.87463C15.7445 7.02902 15.6351 7.15718 15.4905 7.23097C15.3459 7.30476 15.1779 7.31816 15.0235 7.26821C14.9469 7.24357 14.8758 7.20405 14.8145 7.15192C14.7532 7.09978 14.7027 7.03606 14.6661 6.9644C14.6294 6.89274 14.6073 6.81455 14.6009 6.73431C14.5945 6.65407 14.604 6.57336 14.6288 6.4968C14.7918 5.99376 14.8193 5.45646 14.7089 4.93933C14.5984 4.42221 14.3538 3.94327 13.9995 3.55069C13.252 2.72353 12.1506 2.40697 11.1328 2.62312C11.0541 2.63992 10.9729 2.64106 10.8938 2.62648C10.8147 2.6119 10.7392 2.58188 10.6717 2.53813C10.6042 2.49438 10.5459 2.43777 10.5003 2.37151C10.4547 2.30526 10.4225 2.23066 10.4057 2.15199C10.3889 2.07332 10.3878 1.9921 10.4024 1.91299C10.4169 1.83387 10.447 1.7584 10.4907 1.69089C10.5345 1.62337 10.5911 1.56514 10.6573 1.5195C10.7236 1.47387 10.7986 1.44173 10.8773 1.42493Z" fill="#6E6E73"/>
<path fill-rule="evenodd" clip-rule="evenodd" d="M3.75347 9.79648C4.30087 8.68573 5.72563 8.05749 6.98615 8.38555C8.29049 8.72275 8.95618 9.95327 8.42282 11.1485C7.88223 12.3713 6.32749 13.023 5.00825 12.5977C3.73517 12.1865 3.19586 10.9291 3.75347 9.79648ZM6.40961 10.3637C6.57002 10.4298 6.77468 10.3537 6.86744 10.195C6.95594 10.0356 6.8985 9.85626 6.73851 9.79775C6.58129 9.73542 6.38429 9.81095 6.29196 9.96582C6.20218 10.1216 6.25175 10.2986 6.40961 10.3637ZM4.80529 11.6776C5.21865 11.8663 5.76733 11.6872 6.02347 11.2785C6.27536 10.8655 6.14261 10.3939 5.72775 10.2169C5.31758 10.045 4.78742 10.222 4.53446 10.6187C4.27789 11.0172 4.39809 11.4923 4.80529 11.6776Z" fill="#6E6E73"/>
<path fill-rule="evenodd" clip-rule="evenodd" d="M11.7574 7.16247C11.6396 7.4584 11.794 7.50457 12.0193 7.5718C12.9371 7.85645 13.9585 8.54468 13.9585 9.75755C13.9585 11.7646 11.0639 14.2929 6.71257 14.2929C3.39309 14.2929 0 12.6843 0 10.0384C0 8.6551 0.876301 7.05546 2.38552 5.54603C4.40108 3.53132 6.75129 2.61354 7.63482 3.49792C8.02479 3.88746 8.06265 4.56208 7.81204 5.36775C7.68821 5.75235 8.14138 5.57027 8.18886 5.55119C8.19147 5.55015 8.19285 5.54959 8.19285 5.54964C9.82185 4.86737 11.243 4.82758 11.7623 5.56943C12.0393 5.96514 12.0129 6.51955 11.7574 7.16247ZM1.61389 10.6698C1.78622 12.409 4.0726 13.6059 6.72129 13.3447C9.37019 13.0826 11.3779 11.4606 11.2062 9.72117C11.0343 7.98282 8.7477 6.78549 6.09879 7.04759C3.45053 7.30948 1.44199 8.93103 1.61389 10.6698Z" fill="#6E6E73"/>
<path d="M13.2949 4.18616C12.7835 3.61876 12.0285 3.40325 11.3313 3.55154C11.2619 3.56423 11.1958 3.59071 11.1368 3.62941C11.0779 3.66811 11.0273 3.71825 10.9881 3.77685C10.9488 3.83546 10.9218 3.90134 10.9084 3.97059C10.8951 4.03985 10.8959 4.11107 10.9106 4.18004C10.9253 4.24902 10.9537 4.31434 10.9941 4.37214C11.0345 4.42994 11.0861 4.47905 11.1458 4.51656C11.2055 4.55406 11.2721 4.57921 11.3417 4.5905C11.4114 4.60179 11.4825 4.599 11.551 4.58229C11.7243 4.54525 11.9042 4.55479 12.0727 4.60916C12.2413 4.66352 12.3927 4.76122 12.5116 4.89247C12.6303 5.02405 12.7123 5.18462 12.7491 5.35797C12.786 5.53132 12.7765 5.71132 12.7216 5.87983C12.6786 6.01291 12.6906 6.15762 12.7542 6.28216C12.8178 6.40671 12.9283 6.50089 13.0613 6.54402C13.1945 6.58695 13.3392 6.57525 13.4637 6.5115C13.5882 6.44775 13.6823 6.33716 13.7253 6.20405C13.9444 5.52603 13.8074 4.75334 13.2949 4.18616Z" fill="#6E6E73"/>
</svg>
