<?xml version="1.0" encoding="UTF-8"?>
<svg id="Layer_1" data-name="Layer 1" xmlns="http://www.w3.org/2000/svg" viewBox="0 0 180 180">
  <defs>
    <style>
      .cls-1 {
        fill: #010101;
      }
    </style>
  </defs>
  <path class="cls-1" d="M90,.21c49.59,0,89.79,40.19,89.79,89.79s-40.2,89.79-89.79,89.79S.21,139.59.21,90,40.41.21,90,.21ZM130.04,43.07c0-8.64-7.01-15.66-15.67-15.66s-15.67,7.01-15.67,15.66,7.01,15.67,15.67,15.67,15.67-7.01,15.67-15.67ZM118.86,91.3c2.87-8.93,2.46-15.88-1.64-21.09-5.44-7-14.67-6.84-16.66-6.84h-52.01c-2.57,0-4.66,2.09-4.66,4.67s2.09,4.66,4.66,4.66h51.91c1.73,0,6.94.15,9.29,3.49,2.53,3.57,1.5,8.28.22,12.27,0,0-14.41,46.03-15.51,49.55-2.33,7.51-8.96,13.21-16.78,9.91-6.31-2.66-6.23-9.61-3.38-15.16l14.74-29.16c2.96-5.83-.12-9.33-6.43-9.33h-27.08c-2.58,0-4.67,2.09-4.67,4.67s2.09,4.67,4.67,4.67h18.89l-11.63,23.02c-5.82,11.51-4.13,23.54,8.12,28.71,3.44,1.45,7.15,2.18,11.09,2.18,11.35,0,20.7-6.04,24.48-15.84.29-.74,15.52-49.56,15.52-49.56,1.44-4.51,2.05-9.39.85-14.21Z"/>
</svg>